<svg width="50" height="48" fill="none" xmlns="http://www.w3.org/2000/svg"><path d="M41.985 23.671c-9.537-5.483-25-5.483-34.536 0-9.537 5.483-9.536 14.374 0 19.857 9.536 5.483 24.998 5.484 34.535 0 9.537-5.484 9.537-14.377.001-19.857z" fill="#F5F5F5"/><path d="M35.743 36.294c2.408 0 4.36-1.127 4.36-2.517s-1.952-2.516-4.36-2.516c-2.407 0-4.359 1.127-4.359 2.516 0 1.39 1.952 2.517 4.36 2.517zM30.543 38.184c-1.741-.161-3.222-.05-4.4.193-.155-1.11-1.063-2.198-2.732-3.047-3.675-1.874-9.634-1.874-13.31 0-3.675 1.874-3.675 4.911 0 6.785 3.676 1.874 9.635 1.873 13.31 0 .386-.194.754-.42 1.103-.675 1.204.274 2.436.4 3.67.376l.127.042c1 .322 2.043.492 3.093.505.812 0 1.49-.129 1.873-.39.04-.026.079-.056.115-.088.502.015 1.048.035 1.623-.08.833-.168 1.241-.532 1.218-.97-.058-1.097-3.255-2.428-5.69-2.651zm-2.31 3.279c-.715-.263-1.096-.621-1.054-.998.057-.496.789-.943 1.668-1.016.12-.01.245-.015.369-.015.677 0 1.372.145 1.809.356a1.92 1.92 0 00-.577.097c-.263.09-.384.301-.32.55.052.187.213.393.46.59-.61.271-1.441.407-2.355.436zm2.86-1.327c.128 0 .257.01.384.032l.01.029c.052.185-.143.417-.541.65-.274-.183-.438-.367-.474-.501-.011-.042-.024-.09.094-.13.17-.055.347-.082.525-.08h.002zm-1.903 1.603a5.385 5.385 0 001.686-.46l.054-.028c.571.314 1.199.513 1.847.585-.77.275-2.189.234-3.587-.096zm4.055-.212a5.035 5.035 0 01-1.958-.489c.38-.254.565-.52.557-.793.372.1.722.27 1.032.498.282.212.435.444.426.628a.319.319 0 01-.059.16l.002-.004zm1.703-.067c-.473.096-.917.075-1.328.077a.694.694 0 00.025-.141c.022-.307-.176-.639-.557-.929a3.567 3.567 0 00-1.398-.618c-.468-.581-1.891-.832-2.873-.751-1.056.089-1.91.657-1.985 1.323-.028.252.039.662.606 1.037a15.72 15.72 0 01-2.569-.304c.866-.745 1.3-1.596 1.3-2.434 1.148-.243 2.61-.355 4.343-.195 2.548.234 5.335 1.564 5.375 2.324.007.23-.33.493-.941.615l.002-.004z" fill="#E0E0E0"/><path d="M12.929 2.414l-1.22.703a1.37 1.37 0 00.01-.16v-.353c0-.63-.44-.884-.985-.57a1.907 1.907 0 00-.59.57c-.088-.791-.709-1.086-1.462-.65-.814.47-1.475 1.612-1.475 2.553v.532c-.005.21.038.42.126.612l-1.013.584a1.21 1.21 0 00-.547.947c0 .349.245.49.547.32l6.607-3.815a1.21 1.21 0 00.546-.947c.003-.359-.243-.5-.544-.326zM17.882 4.519l-.778.449a.841.841 0 00.006-.107V4.64c0-.4-.28-.563-.627-.362-.15.092-.278.214-.375.36-.058-.504-.452-.692-.932-.414-.52.299-.94 1.028-.94 1.628v.337a.879.879 0 00.08.39l-.647.373a.77.77 0 00-.349.603c0 .223.157.313.35.202l4.212-2.432a.772.772 0 00.349-.604c0-.223-.157-.308-.35-.201z" fill="#EBEBEB"/><path d="M35.063 33.389c-.101-1.245-.027-2.499.219-3.724.283-1.47 1.127-2.66 2.136-3.22.35-.192 1.082-.399 1.561.033.457.412.213 1.075-.346 1.757-1.1 1.343-2.184 2.466-2.48 4.228l-.124 1.307-.966-.381z" fill="#FF696B"/><path opacity=".2" d="M35.063 33.389c-.101-1.245-.027-2.499.219-3.724.283-1.47 1.127-2.66 2.136-3.22.35-.192 1.082-.399 1.561.033.457.412.213 1.075-.346 1.757-1.1 1.343-2.184 2.466-2.48 4.228l-.124 1.307-.966-.381z" fill="#000"/><path d="M35.403 33.224a.055.055 0 01-.055-.055c0-1.703.36-3.176 1.103-4.506.49-.88 1.09-1.518 1.832-1.952a.055.055 0 01.081.062.054.054 0 01-.025.033c-.726.425-1.312 1.048-1.793 1.915-.732 1.314-1.089 2.767-1.089 4.453a.054.054 0 01-.054.05z" fill="#fff"/><path d="M36.597 34.002c0-.418.279-1.193.885-1.942.67-.83 1.657-1.41 1.769-1.935.135-.63-.444-.937-1.3-.639-1.03.364-2.045 1.78-1.922 4.28l.568.236z" fill="#FF696B"/><path d="M36.35 33.63a.05.05 0 00.033-.046c.127-2.216 1.408-3.353 2.089-3.654a.053.053 0 00.027-.07.051.051 0 00-.03-.027.052.052 0 00-.04.001c-.753.333-2.022 1.482-2.15 3.744a.054.054 0 00.05.056.048.048 0 00.021-.005z" fill="#fff"/><path d="M31.287 41.84a10.524 10.524 0 01-3.093-.506l-.126-.041c-1.75.05-3.765-.285-5.235-.832l.12-.326c1.21.45 2.847.754 4.364.803-.569-.374-.639-.784-.606-1.035.076-.667.928-1.235 1.984-1.325.982-.08 2.405.17 2.873.753.506.101.983.312 1.398.617.381.292.58.622.558.929a.687.687 0 01-.026.141c.411 0 .852.018 1.328-.078.611-.122.953-.384.941-.61-.04-.76-2.827-2.09-5.376-2.324-3.394-.313-5.745.414-6.736 1.13l-.204-.28c1.034-.752 3.482-1.517 6.972-1.196 2.435.224 5.632 1.55 5.69 2.652.024.435-.385.802-1.218.97-.575.115-1.121.095-1.623.08a1.021 1.021 0 01-.114.088c-.382.262-1.06.39-1.87.39zm-2.216-.622c1.4.331 2.819.37 3.587.096a4.982 4.982 0 01-1.847-.585l-.055.027c-.533.245-1.102.4-1.685.462zm2.097-.697c.613.293 1.28.459 1.958.487.03-.046.049-.1.053-.155.013-.183-.141-.413-.425-.629a3.148 3.148 0 00-1.032-.498c.011.274-.175.544-.554.795zm-2.071-1.61c-.125 0-.248 0-.37.015-.878.074-1.612.52-1.667 1.016-.043.377.338.736 1.052.998.917-.028 1.748-.164 2.364-.436-.25-.197-.408-.402-.459-.59-.067-.248.054-.459.32-.55.185-.061.38-.094.576-.096-.446-.212-1.139-.357-1.816-.357zm1.877.703a1.612 1.612 0 00-.527.08c-.118.04-.107.088-.094.13.036.133.2.318.474.5.398-.233.592-.465.54-.65a.149.149 0 00-.01-.029 2.52 2.52 0 00-.383-.031z" fill="#455A64"/><path d="M32.289 41.412c.238.055.479.097.721.127a1.368 1.368 0 00.264-.176s-.34-.017-.616-.05c-.12.042-.244.075-.37.099zM30.554 40.848c.07-.029.138-.06.203-.092l.054-.027a2.225 2.225 0 01-.335-.225c-.082.036-.17.07-.259.101.1.098.213.18.337.243zM31.367 39.674a.265.265 0 01-.025.192c.117.015.232.044.342.087a.58.58 0 00.04-.227 1.754 1.754 0 00-.366-.08l.01.028zM26.898 40.918c.161.148.34.274.532.377.213.004.426.004.639 0a5.257 5.257 0 01-.745-.355 17.78 17.78 0 01-.426-.022zM23.453 38.857l.204.281c.39-.283.993-.567 1.789-.788.039-.125.069-.252.09-.38-.935.24-1.64.565-2.083.887zM24.003 40.463a11.101 11.101 0 01-1.05-.327l-.12.326c.261.097.541.187.833.27.116-.084.229-.175.337-.27z" fill="#37474F"/><path d="M17.273 25.732h-.007c-1.322-.05-2.573-1.032-3.783-1.98-1.034-.813-2.012-1.58-2.847-1.58a.173.173 0 010-.347c.957 0 1.979.803 3.062 1.653 1.17.915 2.372 1.86 3.581 1.906a.174.174 0 01-.006.348z" fill="#455A64"/><path d="M8.683 33.36c-.94-.35-1.745-1.636-1.395-3.068.426-1.726 2.317-2.949 3.356-3.95 1.932-1.861 3.116-3.348 2.5-6.026-.54-2.34-2.71-3.124-3.999-3.076-1.596.06-2.605.727-2.516 1.245.039.23.474.332.818.459 1.064.39 1.396.628 1.736 1.086.518.698.606 1.61.494 1.673-.112.063-.26-.462-.967-.764-.708-.302-1.054-.084-1.047.073.006.158.657.307.851 1.243.164.779.125 1.782-1.047 3.386-.721.987-2.361 2.835-2.004 5.194.358 2.36 2.154 3.221 2.894 3.264l.326-.74z" fill="#FF696B"/><path opacity=".05" d="M8.683 33.36c-.94-.35-1.745-1.636-1.395-3.068.426-1.726 2.317-2.949 3.356-3.95 1.932-1.861 3.116-3.348 2.5-6.026-.54-2.34-2.71-3.124-3.999-3.076-1.596.06-2.605.727-2.516 1.245.039.23.474.332.818.459 1.064.39 1.396.628 1.736 1.086.518.698.606 1.61.494 1.673-.112.063-.26-.462-.967-.764-.708-.302-1.054-.084-1.047.073.006.158.657.307.851 1.243.164.779.125 1.782-1.047 3.386-.721.987-2.361 2.835-2.004 5.194.358 2.36 2.154 3.221 2.894 3.264l.326-.74z" fill="#000"/><path opacity=".15" d="M8.357 34.099l.326-.739a2 2 0 01-.72-.48 5.096 5.096 0 00-.328 1.019c.227.108.471.176.722.2z" fill="#000"/><path d="M11.42 19.99c.145-.095.094-.32.022-.47a3.458 3.458 0 00-.766-1.08c.235.049.466.114.692.195.327.107.54.246.588.125a.618.618 0 00-.013-.278c-.057-.226-.112-.308-.19-.368a4.201 4.201 0 00-2.612-.874c-1.596.06-2.605.727-2.517 1.245.04.23.475.332.819.459 1.064.39 1.396.628 1.736 1.086 0 .007.385.19.559.301a.603.603 0 00.254.107.186.186 0 00.12-.029c.12-.079.094-.258.05-.393a5.426 5.426 0 00-.319-.771 2.48 2.48 0 011.11.58c.134.122.316.26.468.165z" fill="#455A64"/><path d="M16.6 32.739c.135 1.85.744 3 2.002 4.069 1.258 1.068 3.053 1.702 3.846 2.051.792.35 1.383.766 1.953.281.57-.485.523-1.535 1.54-2.37 1.016-.834 1.372-1.064 1.399-1.672.034-.8-.735-.779-.97-.659 0 0-.2-.34-.767-.213a1.15 1.15 0 00-.703.509s-.353-.021-.727.328c-.33.308-.974 1.137-.974 1.137s.687-1.08.387-2.234c-.271-1.045-.94-1.33-.94-1.33s.288-.147 1.056-.01c0 0-.32-.891-1.722-1.237-1.402-.346-2.329.657-2.329.657l-3.051.693z" fill="#FF696B"/><path opacity=".15" d="M25.147 34.449a1.17 1.17 0 00-.251.284c.213 0 .658.022.815.565.004 0 .18-.612-.564-.85zM26.503 35.075s.288-.162.12-.696a.702.702 0 00-.254.06.717.717 0 01.134.636z" fill="#000"/><path d="M25.6 36.107a2.261 2.261 0 00-1.583 1.383c-.32.758-.206 1.266.106 1.344.312.077.458.034.727-.376.223-.51.434-1.142 1.095-1.684l.515-.42c-.036-.224-.328-.378-.86-.247z" fill="#F28F8F"/><path d="M25.438 35.383c-.212-.084-.425.409-.185.502.2.078.463-.39.185-.502z" fill="#FFA8A7"/><path d="M26.253 35.216c-.207-.084-.425.409-.185.502.2.083.462-.39.185-.502zM26.923 35.199c-.208-.085-.426.407-.185.501.2.078.463-.388.185-.501z" fill="#F28F8F"/><path d="M14.408 27.99c-.107.59-2.33 1.152-3.855 2.302-1.526 1.15-2.873 2.718-2.634 5.437.263 2.98 2.949 4.078 4.363 4.078 1.414 0 6.242-.374 8.714-3.89 2.472-3.517-.857-8.148-6.588-7.928z" fill="#FF696B"/><path opacity=".15" d="M10.93 34.877s.77-1.357 2.882-.983c2.112.375 1.923 3.647 1.923 3.647s.023 1.829-1.327 1.637c-1.35-.191-3.478-4.301-3.478-4.301zM14.408 27.99a.403.403 0 01-.098.182c-.09 1.09.246 2.494 1.49 2.88 1.352.426 2.879.18 3.903-.181.338-.12.666-.265.982-.432-1.257-1.51-3.481-2.557-6.277-2.45z" fill="#000"/><path d="M15.26 35.715h-.037c-4.682-1.006-6.406-3.96-7.023-5.633-.798-2.175-.867-4.557-.172-5.928a.175.175 0 01.314.156c-.654 1.29-.578 3.56.189 5.65.588 1.605 2.25 4.442 6.765 5.412a.173.173 0 01-.036.344v-.001z" fill="#455A64"/><path d="M25.629 34.551c.538 3.118-1.49 6.071-4.532 6.597-3.042.526-5.945-1.575-6.484-4.692-.453-2.624.968-4.81 3.244-5.746a6.581 6.581 0 012.1-.478c2.75-.17 5.176 1.454 5.672 4.319z" fill="#455A64"/><path opacity=".15" d="M29.23 35.442c-1.31.447-2.69.665-4.075.643.28-.111.55-.24.813-.385.597-.32 1.343-.677 1.506-1.383.032-.132-.13-.106-.193-.054-.466.384-1.026.872-1.635 1.245-.685.41-1.501.54-2.28.363-.16-.035-.318-.074-.482-.118a5.243 5.243 0 001.573-.583c1.134-.646 1.716-1.552 1.916-2.815.023-.143-.123-.19-.213-.097-.175.173-.207.357-.286.594-.257.745-.613 1.177-1.248 1.643a4.4 4.4 0 01-1.49.7c-.273.068-.555.08-.83.122a1.547 1.547 0 01-.843-.08 5.305 5.305 0 01-.605-.333c1.193-.07 2.525-1.125 3.29-1.838.812-.757 1.398-1.703 1.267-2.827-.022-.2-.254-.08-.282.057-.106.524-.154.87-.399 1.37a3.895 3.895 0 01-1.015 1.254c-.881.763-2.094 1.584-3.291 1.694a7.788 7.788 0 01-.49-.39c.896-.335 1.663-1.004 2.29-1.728.376-.42.668-.908.861-1.438.12-.339.388-.897.247-1.252-.067-.166-.272-.008-.284.107-.084.863-.579 1.702-1.13 2.363-.26-.728-.443-1.367-.393-2.172.03-.38.083-.758.159-1.132.023-.12.063-.238 0-.35-.086-.16-.289.09-.259.207-.007-.03-.106.124-.116.135-.09.157-.082.393-.106.57a6.174 6.174 0 00-.09.896c-.02.792.2 1.473.505 2.187-.289.273-.6.523-.93.744-.201-.149-.342-.532-.454-.737a6.943 6.943 0 01-.482-.927c-.294-.767-.224-1.674-.545-2.401-.037-.085-.194.012-.197.08-.028.998.137 2.028.574 2.936.17.356.418.973.737 1.317-.08.06-.169.11-.262.148a.988.988 0 01-.31.089c-.254.017-.395-.213-.547-.38a7.273 7.273 0 01-.494-.618 6.136 6.136 0 01-.87-1.71c-.155-.509-.119-1.096-.363-1.577-.119-.232-.404.007-.339.207.171.532.079 1.114.244 1.658a6.99 6.99 0 001.04 2.014 7.832 7.832 0 002.745 2.31c1.49.73 3.397 1.152 5.173.978-1.93.366-3.924.17-5.746-.565-2.075-.837-4.15-2.714-4.69-4.954-.023-.085-.175-.038-.181.036-.107 1.108.745 2.28 1.472 3.037.832.862 1.715 1.676 2.83 2.164 1.215.532 2.432.887 3.767.911.539.016 1.078.005 1.615-.034a7.41 7.41 0 01-2.067.38c-.912.013-1.817-.15-2.702-.352-1.439-.331-2.641-.922-3.73-1.93a8.561 8.561 0 01-1.162-1.392c-.33-.472-.815-1.013-.938-1.582-.028-.13-.242.012-.233.106.034.47.256.915.498 1.31.135.224.29.432.443.64.154.186.25.414.274.655.008.204-.066.374-.096.57-.03.196-.065.359-.096.538-.06.373-.09.75-.09 1.127-.01 1.215.57 2.268 1.225 3.249.068.106.243-.061.213-.155-.36-1.13-1.052-2.027-.987-3.271.033-.62.213-1.191.354-1.782.012.013.025.028.037.039.206.212.425.425.649.618.18.155.385.33.358.594-.035.176-.085.35-.15.518-.05.193-.085.39-.106.59-.043.34-.056.685-.082 1.028-.08 1.115.213 2.544 1.02 3.377a.115.115 0 00.145 0c.112.256.269.49.462.693a.098.098 0 00.162-.04.098.098 0 00-.003-.066 6.028 6.028 0 01-.392-2.564c.771.347 1.867.29 2.604.062a5.642 5.642 0 001.596-.745 4.845 4.845 0 001.371-1.353c.94-.078 1.724-.37 2.547-.861a.253.253 0 00.097-.226c.204-.06.404-.136.596-.227a.262.262 0 00.09-.313 5.722 5.722 0 001.964-.858c.11-.068.15-.344-.05-.278zm-10.36 2.97a5.261 5.261 0 01.475-.852.224.224 0 00.017-.036c.2.07.403.137.61.198.426.117.868.219 1.318.299-.037 0-.168.122-.2.145-.07.05-.142.1-.212.145-.141.091-.29.17-.444.237a2.34 2.34 0 01-.933.213 1.794 1.794 0 01-.468-.087c-.125-.036-.222-.126-.164-.263zm-.933 1.539a5.804 5.804 0 000 1.346c-.29-.786-.49-1.581-.436-2.442a9.452 9.452 0 01.366-2.083c0 .034.434.26.479.286.117.065.42.152.467.29a.135.135 0 010 .082.572.572 0 01-.089.173c-.476.711-.697 1.497-.787 2.348zm4.63-.912a4.976 4.976 0 01-1.391.709c-.77.258-1.909.376-2.7 0 .035-.232.087-.462.153-.687.39.188.982.169 1.334.107.638-.118 1.5-.477 1.854-1.059.57.078 1.144.11 1.719.094a6.196 6.196 0 01-.97.836z" fill="#000"/><g opacity=".15" fill="#000"><path opacity=".15" d="M15.712 36.74c-.471-1.333-1.153-1.238-1.153-1.238s.28-.162 1.053-.065c0 0-.213-.58-.99-.926a5.395 5.395 0 00-.009 1.945c.137.795.437 1.553.882 2.227.21-.434.481-1.197.217-1.943zM17.352 40.453c.166-.378.41-.717.715-.995.97-.886 1.314-1.138 1.308-1.744-.008-.8-.775-.745-1.004-.607 0 0-.213-.33-.775-.174-.288.087-.53.282-.676.545 0 0-.38-.04-.775.384-.23.268-.444.55-.638.845a5.73 5.73 0 001.845 1.746z"/></g><path d="M25.426 32.194c-.02-.472-.306-1.108-.676-1.631-.617-.872-1.506-1.413-2.401-1.703l-2.31 1.437c2.463-.083 3.31 1.213 3.538 1.936.158.5.29.886.582.886a.296.296 0 00.32-.25c.2.192.502.078.515-.167a.26.26 0 00.31-.056.589.589 0 00.122-.452z" fill="#FF696B"/><path opacity=".15" d="M22.349 28.856l-2.31 1.441c.291-.011.582 0 .87.032a6.642 6.642 0 001.77-1.351 4.492 4.492 0 00-.33-.122zM25.304 32.646v-.005a.182.182 0 01-.235-.128c-.078-.188-.106-.276-.145-.319.05.165.072.336.067.508a.26.26 0 00.313-.056zM24.818 32.945a.28.28 0 01-.25-.23c-.06-.199-.095-.26-.137-.303.042.149.058.304.049.458a.319.319 0 00.338.075z" fill="#000"/><path d="M7.92 35.729c.231 1.84.897 2.957 2.213 3.958 1.317 1.001 3.14 1.54 3.948 1.846.809.306 1.42.692 1.966.178s.442-1.561 1.413-2.447c.972-.887 1.314-1.139 1.31-1.744-.01-.8-.776-.74-1.005-.608 0 0-.213-.33-.776-.173-.288.086-.53.282-.676.544 0 0-.38-.039-.774.384-.309.331-.851 1.17-.851 1.17s.81-1.17.413-2.29c-.47-1.332-1.153-1.237-1.153-1.237s.28-.162 1.054-.065c0 0-.358-.958-1.784-1.145a2.765 2.765 0 00-2.292.779l-3.007.85z" fill="#FF696B"/><path opacity=".15" d="M16.55 36.986a1.126 1.126 0 00-.237.297c.306-.005.676.022.865.572 0 0 .239-.62-.628-.868zM17.93 37.54s.28-.177.086-.701a.705.705 0 00-.251.073.713.713 0 01.166.629z" fill="#000"/><path d="M17.085 38.618a2.264 2.264 0 00-1.508 1.46c-.279.776-.14 1.277.172 1.338.312.06.459.01.707-.413.196-.521.373-1.164 1.004-1.74l.492-.447c-.04-.219-.343-.355-.867-.198zM16.833 37.957c-.213-.074-.404.425-.159.51.203.068.443-.412.159-.51zM17.69 37.694c-.213-.073-.403.426-.158.512.203.067.442-.414.158-.512zM18.358 37.642c-.212-.074-.404.426-.158.51.203.068.441-.412.158-.51z" fill="#F28F8F"/><path opacity=".05" d="M15.427 41.71c-1.263-.272-1.094-.957-1.659-1.359s-1.824-.252-3.842-1.904c-2.018-1.65-2.112-5.235-.823-6.796-.813 1.002-1.341 2.292-1.184 4.079.025.284.075.566.15.842.32 1.357.958 2.278 2.064 3.116 1.318 1 3.14 1.544 3.948 1.846.809.302 1.42.692 1.966.178.044-.042.084-.088.12-.136a.944.944 0 01-.74.135z" fill="#000"/><path opacity=".15" d="M20.189 32.865c-.66-.905-1.177-1.328-1.976-1.775v-.518a6.44 6.44 0 00-.356.134 5.434 5.434 0 00-2.65 2.251c2.432-.183 3.527 1.058 3.798 1.772.19.5.35.886.647.869a.303.303 0 00.308-.273c.213.182.518.05.516-.202a.267.267 0 00.313-.075.602.602 0 00.096-.47c-.047-.48-.313-1.183-.697-1.713z" fill="#000"/><path d="M20.987 34.222c-.047-.48-.311-1.184-.696-1.713-.66-.905-1.177-1.329-1.977-1.776v-.63s-2.883.59-2.936 2.506c2.51-.23 3.453 1.043 3.724 1.768.19.502.35.887.647.87a.303.303 0 00.308-.274c.212.183.518.05.516-.2a.267.267 0 00.313-.076c.111-.135.118-.305.1-.475z" fill="#FF696B"/><path opacity=".15" d="M20.89 34.691v-.005a.185.185 0 01-.247-.117c-.092-.187-.121-.277-.167-.32.06.166.094.34.098.516a.266.266 0 00.317-.074zM20.41 35.026a.288.288 0 01-.268-.222c-.073-.199-.113-.26-.159-.3.052.15.078.306.078.464a.328.328 0 00.35.057zM16.126 31.14c.943.218 1.94.146 2.778-.042a7.091 7.091 0 00-.59-.365v-.63s-1.317.272-2.188 1.037z" fill="#000"/><path d="M18.935 23.802c.29-.92 1.561-2.081 2.631-1.744.603.19.361 2.412.361 2.412s-1.957.15-2.992-.668z" fill="#FF696B"/><path opacity=".15" d="M18.935 23.802c.29-.92 1.561-2.081 2.631-1.744.603.19.361 2.412.361 2.412s-1.957.15-2.992-.668z" fill="#000"/><path d="M19.845 24.253c.985.301 2.082.213 2.082.213s.242-2.223-.36-2.412c-.391-.053-1.338.542-1.722 2.2z" fill="#FFA8A7"/><path d="M21.11 23.435c-.091-.247.085-.565.085-.565-.36 0-.83.37-.875.967 0 0 .736.886 1.49.416a.986.986 0 01.158-.352 8.47 8.47 0 00.007-.503 2.152 2.152 0 00-.865.037z" fill="#F28F8F"/><path d="M16.44 24.679c-.801-.532-2.519-.65-3.144.282-.352.524 1.228 2.11 1.228 2.11s1.618-1.107 1.916-2.392z" fill="#FF696B"/><path opacity=".15" d="M16.44 24.679c-.801-.532-2.519-.65-3.144.282-.352.524 1.228 2.11 1.228 2.11s1.618-1.107 1.916-2.392z" fill="#000"/><path d="M16.011 25.6c-.582.85-1.49 1.472-1.49 1.472s-1.58-1.587-1.227-2.111c.271-.29 1.382-.416 2.717.638z" fill="#FFA8A7"/><path d="M14.136 25.333s.338.139.42.389c0 0-.489.212-.73.553.09.117.183.228.269.329a.952.952 0 01.425.195c.883-.106.852-1.193.852-1.193-.311-.445-.954-.498-1.236-.273z" fill="#F28F8F"/><path d="M19.815 30.382c-1.025.36-2.554.603-3.904.183-1.612-.502-1.702-2.715-1.309-3.735.394-1.019 1.197-2.057 3.041-2.708 1.844-.65 3.123-.344 4.067.205.944.549 2.262 2.329 1.32 3.73-.79 1.175-2.19 1.964-3.215 2.325z" fill="#FF696B"/><path d="M19.806 30.151c2.042-.72 1.936-1.915 1.42-2.396-.516-.48-1.372-.585-2.348-.241-.977.343-1.577.963-1.68 1.66-.102.695.566 1.697 2.608.977z" fill="#F0F0F0"/><path d="M19.248 29.296s.083.346.34.26c.258-.087.107-.414.107-.414l-.32-.232-.127.386z" fill="#F28F8F"/><path d="M19.235 28.533l-.48-.053a.066.066 0 01.015-.132l.418.047.304-.295a.066.066 0 01.112.047.067.067 0 01-.019.046l-.35.34z" fill="#455A64"/><path d="M18.888 29.523a.544.544 0 01-.513-.362.066.066 0 11.126-.044.411.411 0 10.776-.274l-.127-.36a.068.068 0 01.018-.072.066.066 0 01.094.007c.005.006.01.014.012.022l.127.36a.542.542 0 01-.513.723z" fill="#455A64"/><path d="M19.788 29.204a.548.548 0 01-.511-.363l-.127-.36a.068.068 0 01.002-.05.067.067 0 01.064-.038.066.066 0 01.058.045l.127.36a.407.407 0 00.213.234.41.41 0 00.566-.508.066.066 0 01.112-.066c.005.007.01.014.012.023a.544.544 0 01-.515.723zM21.216 26.446a.477.477 0 11-.899.317.477.477 0 01.9-.317zM16.386 28.148a.475.475 0 10.895-.317.475.475 0 00-.895.317zM14.997 28.229a.097.097 0 01-.07-.03c-.364-.37-.978-.752-1.835-.453a.099.099 0 01-.126-.06.1.1 0 01.06-.127c.958-.332 1.638.09 2.042.501a.098.098 0 01.022.109.099.099 0 01-.054.053.096.096 0 01-.039.006zM14.777 28.475a.093.093 0 01-.052-.015c-.329-.202-.927-.203-1.24-.068a.099.099 0 01-.132-.05.107.107 0 01.052-.132c.36-.154 1.034-.16 1.424.082a.099.099 0 01-.052.183zM13.243 29.31a.1.1 0 01-.064-.175c.588-.496 1.35-.587 1.809-.463a.099.099 0 01-.053.19c-.41-.106-1.095-.025-1.629.426a.097.097 0 01-.063.023zM22.217 25.686h-.01a.1.1 0 01-.09-.107c.057-.575.32-1.33 1.277-1.67a.1.1 0 01.123.136.099.099 0 01-.055.05c-.852.306-1.095.986-1.146 1.503a.097.097 0 01-.099.087zM22.542 25.74a.097.097 0 01-.093-.132c.153-.432.68-.851 1.058-.958a.097.097 0 01.076.01.098.098 0 01.047.06.098.098 0 01-.07.12c-.33.093-.795.468-.924.832a.099.099 0 01-.094.068zM22.643 26.16a.096.096 0 01-.057-.02.099.099 0 01-.023-.137c.28-.384.93-.788 1.703-.772a.1.1 0 01.099.1.1.1 0 01-.1.098c-.7-.016-1.283.347-1.533.69a.099.099 0 01-.089.041z" fill="#455A64"/><path d="M20.5 23.851c.084-.39.453-.764.813-.764 0 0-.177.32-.086.565 0 0 .92-.241 1.252.185 0 0-.417.077-.552.633-.754.47-1.428-.619-1.428-.619zM15.251 25.693c-.31-.251-.83-.314-1.112-.088 0 0 .337.138.42.388 0 0-.87.385-.863.927 0 0 .377-.2.83.15.88-.1.725-1.377.725-1.377zM18.48 23.884c-.126.029-.135-.204-.078-.494.052-.261.263-.784-.106-.777-.37.006-.767.338-.922.97a1.374 1.374 0 01-.227-.452c-.059-.239-.357-.26-.488.213-.1.36.074.721.17.872.052.084.03.223-.148.32 0 0 .768.262 1.285 0 .517-.264.514-.652.514-.652z" fill="#FF696B"/><path d="M17.57 25.906a.23.23 0 00.203-.162.23.23 0 00.01-.09 2.539 2.539 0 00-.587-1.349 6.56 6.56 0 00-.434.204c.332.39.522.787.559 1.188a.232.232 0 00.23.213l.019-.004zM18.976 25.113a.234.234 0 00.227.187c.015.002.03.002.045 0a.232.232 0 00.183-.272 2.497 2.497 0 00-.639-1.198 6.298 6.298 0 00-.54.114c.395.366.638.756.724 1.169zM17.499 24.178c.243.269.633.785.725 1.412a.232.232 0 00.23.198h.034a.232.232 0 00.195-.264 3.175 3.175 0 00-.712-1.506 8.773 8.773 0 00-.328.107l-.144.053zM9.113 39.166h-.017a.172.172 0 01-.156-.19c.07-.732.79-2.005 2.486-2.514 1.645-.494 3.368.063 4.083.885a.174.174 0 11-.263.229c-.527-.607-2.074-1.277-3.724-.781-1.532.46-2.18 1.576-2.24 2.214a.175.175 0 01-.169.157z" fill="#455A64"/><path d="M10.817 40.496a.175.175 0 01-.175-.173c0-.356.263-1.571 1.15-2.334a3.172 3.172 0 013.457-.454.174.174 0 01-.168.305 2.807 2.807 0 00-3.063.408c-.783.674-1.03 1.767-1.028 2.068a.174.174 0 01-.172.175l-.001.005zM8.588 22.92c-.513 1.21-.043 3.785 1.011 5.371 1.139 1.713 3.448 3.87 6.038 4.828a.174.174 0 01-.061.337.17.17 0 01-.06-.01c-2.66-.986-5.037-3.202-6.206-4.962-1.188-1.78-1.645-4.644-.95-5.89.05-.091.109-.177.174-.257.037.192.055.387.054.583z" fill="#455A64"/><path d="M35.575 3.898l1.067-.615v30.762l-1.066.616V3.898z" fill="#37474F"/><path d="M33.977 33.737l1.6.924-.002-30.763-.386-.223-.13 1.336-.133-1.487-.949-.548v30.761z" fill="#455A64"/><path opacity=".1" d="M35.574 24.75v-3.793c-.061-1.474-.133-3.405-.12-4.249l-.37-.212c0 1.286-.145 3.657-.224 5.255-.106 2.265.295 5.192.312 6.373.017 1.181 0 6.304 0 6.304l.182.106s-.054-6.442.1-8.153c.052-.59.092-1.143.12-1.632zm-.365.801c-.243-.106-.184-5.831.069-5.745.2.075.177 5.853-.066 5.745h-.003z" fill="#000"/><path d="M35.19 3.675l-.264-.151.133 1.487.13-1.336z" fill="#263238"/><path opacity=".05" d="M34.494 3.274c-.022 1.647.301 2.751.295 5.041 0 0-.036-1.62-.254-2.82a14.54 14.54 0 01-.243-2.34l.202.119zM35.574 3.898c0 .543-.023 1.78-.09 2.542a30.72 30.72 0 00-.025 3.182s-.19-1.797-.126-2.862c.064-1.065.063-2.966.063-2.966l.178.104z" fill="#fff"/><path opacity=".1" d="M33.978 9.094v1.973c.17-1.04.434-2.137.481-2.604.07-.699-.047-1.983-.166-2.709-.119-.726-.319-1.95-.284-2.756l-.03-.022v1.961l.015.127c.132.97.201 2.406.152 3.047-.032.331-.088.66-.168.983z" fill="#000"/><path opacity=".05" d="M34.603 23.14c-.032.723.278 3.421.337 4.271.117 1.661.064 6.916.064 6.916l-.213-.124s.026-5.942 0-6.632c-.037-.953-.28-3.594-.188-4.432z" fill="#fff"/><path opacity=".1" d="M34.79 16.378c0 1.316-.042 3.81-.214 4.862a18.885 18.885 0 00-.106 4.7c.12 1.166.14 2.341.062 3.511 0 0-.065-2.028-.25-3.688a25.028 25.028 0 01.016-4.965c.144-1.604.186-4.657.186-4.657l.305.237z" fill="#000"/><path opacity=".05" d="M34.23 16.056s-.024 2.089-.061 2.782c-.037.694-.138 2.049-.138 2.049s-.033-2.224 0-2.938c.032-.714-.015-2.056-.015-2.056l.215.163zM34.23 27.583c.12 1.117.136 2.425.168 2.918.031.494.08 3.525.08 3.525l-.248-.14s-.02-3.14-.028-3.846c-.01-.907.072-1.857.029-2.457z" fill="#fff"/><path opacity=".1" d="M34.784 3.75c.054.868.256 1.703.319 2.314.063.61.106 2.49.106 2.49l-.212-.12s.045-1.72-.061-2.56c-.106-.84-.177-1.568-.152-2.123z" fill="#000"/><path d="M36.642 3.283l-1.599-.923-1.066.616 1.598.922 1.067-.615z" fill="#263238"/><path opacity=".15" d="M36.642 20.818l-1.066.615v1.494l1.066-.616v-1.493z" fill="#000"/><path opacity=".15" d="M35.577 21.433l-1.6-.923v1.494l1.6.923v-1.494z" fill="#000"/><path d="M25.23 10.88l19.712 11.377 1.143-.657-19.71-11.381-1.145.662z" fill="#263238"/><path d="M24.302 10.108L44.14 21.556v-4.584l-1.756-1.013-.191 1.337-.115-1.514L24.302 5.524l.001 2.965.57.568-.57-.166v1.217z" fill="#455A64"/><path opacity=".05" d="M44.139 20.798c-1.032-.598-5.374-3.047-5.874-3.285-1.453-.696-2.707-1.243-4.652-2.35 0 0 .903.638 2.848 1.646.913.47 1.749.873 2.188 1.091.44.218 5.49 3.126 5.49 3.126v-.228z" fill="#fff"/><path opacity=".1" d="M24.306 6.507l1.693.98c1.516.877 2.536 1.51 3.192 2.114.657.604 1.934 1.369 2.506 1.68 0 0-.672-.244-1.932-1.024-1.26-.78-1.49-1.187-3.282-2.223l-2.177-1.26v-.267zM44.139 20.25l-5.283-3.05c-.575-.331-1.927-.592-2.669-1.02.406.28.843.511 1.303.69.754.29 5.941 3.218 6.648 3.625v-.246z" fill="#000"/><path opacity=".05" d="M24.873 9.057l5.052 2.922c1.146.663 3.051 1.994 4.656 2.863a35.326 35.326 0 002.787 1.368s-1.535-.437-2.805-1.17c-1.269-.733-3.58-2.18-4.974-2.986l-5.286-3.057v-.106l.57.166zM44.139 18.61c-1.064-.616-4.588-2.648-5.427-3.135-.838-.487-2.128-1.383-3.555-2.213a25.149 25.149 0 00-3.5-1.688 17.596 17.596 0 01-1.887-.912c.747.5 1.535.936 2.355 1.305 1.416.644 3.112 1.53 4.618 2.6 1.505 1.07 7.396 4.344 7.396 4.344v-.301zM24.307 5.891s6.377 3.618 7.971 4.536c1.594.919 3.683 2.205 3.683 2.205s-3.366-1.793-6.743-3.743l-4.91-2.841V5.89z" fill="#fff"/><path opacity=".1" d="M44.139 17.749s-7.367-4.256-9.444-5.454c-2.077-1.198-4.389-2.31-4.389-2.31s1.725 1.14 4.276 2.62c.755.439 9.557 5.52 9.557 5.52v-.375M24.302 9.388l5.709 3.298c1.17.677 4.206 2.527 4.93 2.986 0 0-2.99-1.57-6.965-3.87l-3.674-2.128v-.286zM24.304 8.35l4.809 2.78c1.118.648 3.724 2.406 4.874 3.07 1.15.662 8.713 4.781 10.152 5.613v-.32c-.893-.516-8.14-5.22-9.871-6.223-1.731-1.002-3.504-1.504-4.583-2.128l-5.38-3.112v.32zm7.482 4.093c0-.161 1.477.514 2.492 1.1.895.518 2.673 1.715 2.673 1.864 0 .149-1.737-.783-2.673-1.325-.935-.541-2.492-1.477-2.492-1.64z" fill="#000"/><path opacity=".05" d="M24.307 7.116c.7.404 2.873 1.637 3.484 2.102.61.465 1.234 1.215 2.405 1.891 0 0-1.208-.504-1.903-1.163-.695-.658-3.992-2.503-3.992-2.503l.006-.327z" fill="#fff"/><path opacity=".2" d="M26.383 6.726l15.707 9.248.107.429.16-.27 1.583.988.199 4.435v-4.584l-1.756-1.013-.153-.091-.153-.087-15.694-9.055z" fill="#fff"/><path d="M45.282 20.895l-1.143.661v-4.584l1.142-.673v4.596z" fill="#37474F"/><path d="M42.383 15.96l-.191 1.336-.115-1.514.153.086.153.091z" fill="#263238"/><path d="M42.077 15.781l.153.087-.038 1.428-.115-1.514zM24.303 8.489l.17.316-.17.086.57.166-.57-.568z" fill="#37474F"/><path d="M24.303 8.489l.17.316.4.252-.57-.568zM44.623 20.888l-.484.017-.888-.377.888.856.484-.496z" fill="#263238"/><path d="M44.623 20.888l-.484.244-.888-.604.888.377.484-.017z" fill="#37474F"/><path d="M24.302 5.524L44.14 16.972l1.142-.673L25.459 4.857l-1.156.667z" fill="#263238"/><path d="M24.834 5.587l19.712 11.377V12.38L26.791 2.133l-.192 1.337-.115-1.514-1.65-.953v4.584z" fill="#455A64"/><path opacity=".05" d="M44.546 16.2c-1.032-.596-5.372-3.046-5.873-3.284-1.454-.696-2.707-1.243-4.651-2.35 0 0 .901.638 2.846 1.647.913.47 1.75.872 2.189 1.09.438.218 5.49 3.127 5.49 3.127v-.23z" fill="#fff"/><path opacity=".1" d="M24.838 1.986l1.569.908c1.517.878 2.535 1.509 3.192 2.113.656.605 1.932 1.37 2.509 1.681 0 0-.674-.243-1.934-1.024-1.26-.781-1.49-1.187-3.281-2.223l-2.056-1.189.001-.266zM44.546 15.657c-1.084-.628-4.71-2.716-5.283-3.048-.573-.332-1.927-.593-2.668-1.022.406.28.843.512 1.303.69.755.29 5.943 3.218 6.648 3.626v-.246z" fill="#000"/><path opacity=".05" d="M24.835 4.206l5.498 3.186c1.146.663 3.05 1.994 4.656 2.863a35.673 35.673 0 002.787 1.368s-1.536-.437-2.805-1.17c-1.27-.733-3.58-2.18-4.973-2.986l-5.164-2.994.001-.267zM44.546 14.017c-1.064-.616-4.588-2.647-5.426-3.134-.839-.488-2.128-1.383-3.555-2.213a25.031 25.031 0 00-3.502-1.688 17.583 17.583 0 01-1.888-.912c.75.5 1.538.936 2.36 1.305 1.416.638 3.112 1.53 4.617 2.6 1.506 1.07 7.396 4.344 7.396 4.344l-.002-.302zM24.84 1.37c6.159 3.49 6.131 3.468 7.847 4.464 1.596.922 3.681 2.206 3.681 2.206s-3.37-1.793-6.742-3.744L24.838 1.53l.001-.16z" fill="#fff"/><path opacity=".1" d="M44.546 13.157S37.18 8.9 35.103 7.702c-2.077-1.198-4.39-2.31-4.39-2.31s1.726 1.14 4.276 2.62c.756.438 9.557 5.52 9.557 5.52v-.375zM24.834 4.867l5.584 3.23a240.27 240.27 0 014.93 2.986s-2.99-1.57-6.964-3.87l-3.551-2.056.001-.29zM24.835 3.827L29.52 6.54c1.118.647 3.724 2.406 4.874 3.07 1.15.662 8.714 4.78 10.152 5.613v-.32c-.892-.515-8.139-5.22-9.87-6.222-1.733-1.001-3.504-1.504-4.584-2.128l-5.256-3.04v.314zm7.36 4.022c0-.16 1.477.513 2.49 1.1.896.519 2.674 1.716 2.674 1.865 0 .149-1.738-.784-2.673-1.325-.935-.542-2.492-1.48-2.491-1.64z" fill="#000"/><path opacity=".05" d="M24.838 2.595c.7.404 2.754 1.564 3.36 2.03.607.466 1.235 1.215 2.405 1.892 0 0-1.207-.504-1.902-1.164-.695-.66-3.868-2.43-3.868-2.43l.005-.328z" fill="#fff"/><path d="M26.79 2.133l-.152-.088-.154-.09.115 1.515.192-1.337z" fill="#263238"/><path opacity=".2" d="M26.79 2.133L44.349 12.53l.198 4.435V12.38L26.791 2.133z" fill="#fff"/><path d="M44.546 13.827l-1.077-.32 1.077.88v-.56zM45.689 16.299l-1.143.665V12.38l1.143-.678v4.597z" fill="#37474F"/><path d="M44.546 12.38l1.143-.678L25.995.335l-1.16.668L44.545 12.38z" fill="#263238"/><path d="M44.546 13.827l.306.108-.306.452v-.56z" fill="#37474F"/><path d="M44.852 13.935l-.306.177-1.077-.604 1.077.879.306-.452z" fill="#263238"/><path d="M26.484 1.956l.154.089-.039 1.425-.115-1.514z" fill="#37474F"/><path d="M25.23 10.88l19.712 11.377v4.584L27.187 16.594l-.192-1.557-.115 1.38-1.65-.953v-4.583z" fill="#455A64"/><path opacity=".05" d="M44.938 23.02c-1.032-.595-5.373-3.15-5.874-3.488-1.453-.983-2.706-1.883-4.652-3.02 0 0 .903.396 2.848 1.64.913.583 3.796 2.324 4.235 2.612.438.289 3.443 2.028 3.443 2.028v.228z" fill="#fff"/><path opacity=".1" d="M25.234 14.486l1.568.904c1.517.873 2.536 1.418 3.193 1.575.656.156 1.933.862 2.505 1.213a14.133 14.133 0 00-1.927-1.21c-1.26-.675-1.49-.532-3.281-1.565l-2.056-1.186-.002.268zM44.938 23.565c-1.086-.625-2.66-1.536-3.237-1.866-.577-.331-3.973-2.81-4.715-3.237.465.221.902.495 1.304.816.754.58 5.941 3.635 6.648 4.043v.244z" fill="#000"/><path opacity=".05" d="M25.231 12.263l5.498 3.168c1.146.66 3.05 1.53 4.655 2.513 1.605.983 2.788 1.85 2.788 1.85s-1.534-1.337-2.81-2.067c-1.277-.731-3.58-1.954-4.974-2.757l-5.162-2.98.005.273zM44.938 25.203l-3.385-1.95c-.843-.486-4.172-2.245-5.6-3.069a32.42 32.42 0 01-3.5-2.353 21.722 21.722 0 00-1.88-1.267s.943.425 2.36 1.419c1.416.994 3.112 2.063 4.617 2.731 1.506.669 7.388 4.19 7.388 4.19v.3zM25.235 15.104s6.252 3.678 7.846 4.596c1.594.919 3.683 2.047 3.683 2.047s-3.37-2.1-6.743-4.043l-4.788-2.759.002.159z" fill="#fff"/><path opacity=".1" d="M44.938 26.064l-9.443-5.441c-2.072-1.196-4.39-2.758-4.39-2.758s1.725.851 4.276 2.317c.76.434 9.557 5.51 9.557 5.51v.375M25.23 11.6l5.584 3.22c1.17.674 4.206 2.329 4.93 2.706 0 0-2.99-1.882-6.965-4.171l-3.55-2.047v.293zM25.232 12.966l5.256 3.03c1.08.62 2.852 2.164 4.583 3.162 1.731.998 8.978 4.653 9.871 5.167v-.32c-1.438-.828-9.007-5.44-10.152-6.1-1.145-.66-3.756-1.915-4.875-2.56l-4.682-2.7-.001.321zm9.85 5.385c.935.54 2.673 1.613 2.673 1.762 0 .15-1.778-.706-2.673-1.221-1.015-.585-2.491-1.617-2.492-1.777-.001-.16 1.555.704 2.492 1.236z" fill="#000"/><path opacity=".05" d="M25.234 13.882c.7.404 2.754 1.615 3.36 1.85.607.234 1.235.212 2.405.886 0 0-1.208-.89-1.902-1.034-.695-.144-3.868-2.035-3.868-2.035l.005.333z" fill="#fff"/><path d="M27.187 16.594l-.207-.474-.1.297.115-1.38.192 1.557z" fill="#263238"/><path opacity=".2" d="M27.187 12.01l17.556 10.396.2 4.435v-4.584L27.186 12.011z" fill="#fff"/><path d="M44.942 25.394l-1.077-.924 1.077.364v.56zM46.085 21.6l-1.143.657v4.584l1.143-.659V21.6z" fill="#37474F"/><path d="M44.942 25.394l.837-.832-.837.272v.56z" fill="#37474F"/><path d="M45.78 24.562l-.838.547-1.077-.639 1.077.364.837-.272z" fill="#263238"/><path d="M26.88 16.417l.1-.297.015-1.083-.115 1.38z" fill="#37474F"/><path d="M34.51 8.754c.302.173.57.398.792.665.22.266.405.56.549.873.145.322.252.66.32 1.006.07.346.113.697.126 1.05a30.066 30.066 0 010 1.676c-.009.305-.051.608-.127.904a1.4 1.4 0 01-.319.63.799.799 0 01-.549.24c-.221.011-.485-.072-.792-.25a2.912 2.912 0 01-.791-.664 3.956 3.956 0 01-.55-.874 4.593 4.593 0 01-.319-1.005 6.397 6.397 0 01-.126-1.05 28.307 28.307 0 010-1.68 4.12 4.12 0 01.127-.906c.05-.234.16-.45.319-.63a.794.794 0 01.549-.24c.221-.007.485.078.791.255zm.657 4.575c.015-.526.015-1.055 0-1.588a4.62 4.62 0 00-.046-.46 1.975 1.975 0 00-.106-.407 1.312 1.312 0 00-.197-.345 1.062 1.062 0 00-.308-.264.532.532 0 00-.306-.092.25.25 0 00-.197.098.836.836 0 00-.113.296 2.33 2.33 0 00-.04.415c-.02.51-.02 1.04 0 1.586.003.153.017.306.04.458.02.14.056.277.107.408.05.125.117.242.2.347.084.106.188.195.306.262.09.062.197.095.307.093a.284.284 0 00.2-.118.686.686 0 00.106-.28c.026-.136.042-.273.047-.411v.002z" fill="#263238"/><path d="M35.851 15.562a.794.794 0 01-.55.242c-.22.01-.483-.072-.79-.25a2.913 2.913 0 01-.791-.664 3.923 3.923 0 01-.288-.394l.375-.213c.077.113.157.222.245.327.221.267.49.492.79.665.307.177.571.26.793.249a.96.96 0 00.306-.065 1.02 1.02 0 01-.09.103zM35.236 10.37l-.376.221c-.013-.021-.027-.043-.042-.064a1.085 1.085 0 00-.308-.262.532.532 0 00-.306-.092.248.248 0 00-.197.098c-.032.046-.034.05 0 0a.28.28 0 01.068-.07l.329-.256a.246.246 0 01.135-.053.52.52 0 01.306.092 1.036 1.036 0 01.391.387z" fill="#37474F"/><path d="M36.175 11.277a4.582 4.582 0 00-.319-1.004 3.958 3.958 0 00-.549-.875 2.935 2.935 0 00-.791-.665c-.307-.176-.57-.26-.792-.249a.866.866 0 00-.288.064 1.49 1.49 0 00-.254.543 4.11 4.11 0 00-.125.904 26.5 26.5 0 00-.013.844c0 .296 0 .575.013.838.012.352.054.704.125 1.05.068.346.175.683.32 1.005.144.314.329.608.55.874.221.267.49.492.79.665.308.177.57.26.792.249a.983.983 0 00.307-.064c.116-.166.198-.352.242-.55.072-.293.112-.594.12-.897.007-.253.01-.528.01-.824 0-.297 0-.582-.01-.857a6.396 6.396 0 00-.127-1.05zm-.676 1.766a2.657 2.657 0 01-.04.412.67.67 0 01-.106.28.314.314 0 01-.071.07s-.307.245-.333.264a.287.287 0 01-.128.046.521.521 0 01-.306-.092 1.047 1.047 0 01-.307-.262 1.397 1.397 0 01-.2-.347 1.833 1.833 0 01-.106-.409 3.439 3.439 0 01-.04-.456c-.021-.548-.021-1.077 0-1.588.002-.137.016-.274.042-.41a.768.768 0 01.106-.28.304.304 0 01.068-.07c.038-.027.302-.24.326-.258a.268.268 0 01.135-.054.532.532 0 01.306.093c.117.067.22.156.304.261.081.105.147.221.195.345.05.132.086.268.107.408.023.152.038.306.046.46.018.532.019 1.061.002 1.587z" fill="#FF696B"/><path d="M30.541 13.168a.312.312 0 01-.117-.142.479.479 0 01-.049-.213v-.963l-1.93-1.112a.306.306 0 01-.117-.143.478.478 0 01-.049-.212V9.38a.638.638 0 01.08-.36l1.835-2.502a.184.184 0 01.1-.079c.046 0 .09.014.126.04l.927.533a.319.319 0 01.117.142c.032.067.049.14.049.213v3.627l.527.305a.307.307 0 01.117.142c.032.067.049.14.049.213v1.002a.202.202 0 01-.05.15.09.09 0 01-.116.01l-.527-.305v.963a.205.205 0 01-.049.15.089.089 0 01-.117.01l-.806-.467zm-.135-2.808V8.623l-.897 1.216.897.521z" fill="#263238"/><path d="M32.155 12.805a.2.2 0 00.048-.15v-.22l-.36-.214-.332.284.527.305a.09.09 0 00.117-.005zM31.51 13.252v.22a.197.197 0 01-.05.152.089.089 0 01-.116.008l-.803-.464a.313.313 0 01-.117-.142l-.006-.017.332-.283a.32.32 0 00.123.16l.638.366zM30.707 11.571l-.332.283-1.93-1.116a.308.308 0 01-.114-.143c-.006-.01-.008-.02-.012-.03l.343-.254c.024.06.064.11.117.144l1.928 1.116z" fill="#37474F"/><path d="M32.038 11.283l-.527-.304V7.35a.492.492 0 00-.05-.213.313.313 0 00-.116-.142l-.927-.532a.261.261 0 00-.043-.02l-1.686 2.299a.64.64 0 00-.08.36v1a.48.48 0 00.05.214.305.305 0 00.116.142l1.933 1.116v.963c0 .072.017.143.048.208a.32.32 0 00.117.143l.639.368v-.745l.332-.284.36.213v-.8a.485.485 0 00-.048-.213.306.306 0 00-.118-.145zm-1.3-1.206l-.332.264-.897-.517.896-1.221.332-.263.001 1.737z" fill="#FF696B"/><path d="M39.075 18.095a.306.306 0 01-.117-.143.477.477 0 01-.049-.207v-.964l-1.932-1.115a.31.31 0 01-.117-.144.477.477 0 01-.05-.208v-1a.638.638 0 01.08-.36l1.835-2.502a.172.172 0 01.101-.079c.045 0 .089.014.126.04l.926.532a.311.311 0 01.116.142c.033.066.05.14.05.213v3.625l.531.305a.306.306 0 01.117.142c.033.066.05.14.05.213v1.001a.204.204 0 01-.05.151.09.09 0 01-.117.008l-.532-.305v.958a.198.198 0 01-.049.151.087.087 0 01-.116.009l-.803-.463zm-.135-2.807v-1.739l-.896 1.222.896.517z" fill="#263238"/><path d="M40.688 17.733a.201.201 0 00.049-.151v-.22l-.36-.213-.334.287.532.304a.09.09 0 00.113-.007zM40.043 18.18v.22a.198.198 0 01-.05.15.088.088 0 01-.117.009l-.802-.463a.32.32 0 01-.117-.144l-.007-.017.332-.283a.32.32 0 00.123.16l.638.368zM39.241 16.498l-.332.284-1.933-1.117a.297.297 0 01-.115-.143.17.17 0 01-.012-.03l.344-.253a.31.31 0 00.116.142l1.932 1.117z" fill="#37474F"/><path d="M40.575 16.21l-.532-.306v-3.626a.477.477 0 00-.049-.208.311.311 0 00-.116-.142l-.926-.532a.391.391 0 00-.044-.02l-1.686 2.293a.64.64 0 00-.08.361v1.001c.002.072.019.143.05.208a.305.305 0 00.117.142l1.932 1.117v.957a.48.48 0 00.049.213.312.312 0 00.117.143l.638.367v-.745l.333-.283.361.213v-.802a.479.479 0 00-.049-.207.32.32 0 00-.115-.145zm-1.299-1.206l-.336.261-.896-.517.896-1.221.332-.263.004 1.74z" fill="#FF696B"/><path d="M28.858 15.041a.06.06 0 01.023.028.09.09 0 01.01.039v.193a.04.04 0 01-.01.03.017.017 0 01-.012.004.017.017 0 01-.01-.005l-.56-.319a.067.067 0 01-.023-.027.093.093 0 01-.008-.04v-1.171a.04.04 0 01.008-.03.017.017 0 01.011-.004c.005 0 .008.001.012.004l.55.32c.01.006.018.016.023.027a.108.108 0 01.009.04v.193c0 .01-.003.02-.009.028a.018.018 0 01-.022 0l-.364-.212v.197l.337.194a.06.06 0 01.023.028.09.09 0 01.009.04v.193c0 .005 0 .01-.002.015a.038.038 0 01-.008.014.016.016 0 01-.01.004.016.016 0 01-.012-.004l-.337-.193v.204l.372.21zM29.44 14.723c.01.006.02.016.024.027a.106.106 0 01.008.04v.184c0 .01-.002.02-.008.029a.018.018 0 01-.024 0l-.106-.062c-.072-.042-.107-.007-.107.106v.448c0 .006 0 .01-.002.016a.039.039 0 01-.007.013c-.006.006-.013.006-.023 0l-.147-.085a.054.054 0 01-.023-.028.093.093 0 01-.01-.04v-.851a.04.04 0 01.01-.03c.006-.005.013-.005.023 0l.136.08a.06.06 0 01.022.027.09.09 0 01.01.04v.042a.106.106 0 01.066-.027c.032 0 .064.008.091.026l.067.045zM29.983 15.036c.01.006.018.016.022.027.006.012.01.026.01.04v.184a.038.038 0 01-.01.028.016.016 0 01-.022 0l-.107-.061c-.072-.042-.106-.007-.106.106v.448a.04.04 0 01-.01.029.016.016 0 01-.022 0l-.149-.085a.067.067 0 01-.022-.028.093.093 0 01-.01-.04v-.852a.04.04 0 01.01-.028.016.016 0 01.022 0l.138.078a.06.06 0 01.022.028c.006.012.01.026.01.04v.042a.1.1 0 01.064-.028c.033 0 .065.01.092.027l.068.045zM30.706 15.857v.14c0 .05-.01.1-.026.148a.212.212 0 01-.065.096.144.144 0 01-.099.032.266.266 0 01-.13-.041.525.525 0 01-.132-.107.804.804 0 01-.19-.497v-.071-.07c0-.05.008-.1.024-.148a.225.225 0 01.066-.096.155.155 0 01.1-.033.267.267 0 01.131.042c.05.028.093.064.131.106a.796.796 0 01.19.5zm-.425-.118a.308.308 0 00.032.128.193.193 0 00.076.083.065.065 0 00.077 0 .118.118 0 00.032-.09.494.494 0 000-.06.62.62 0 000-.063.306.306 0 00-.032-.127.202.202 0 00-.077-.083c-.032-.018-.057-.02-.076-.005a.118.118 0 00-.032.09.557.557 0 000 .06.578.578 0 00-.004.067h.004zM31.246 15.764c.01.008.017.017.022.028.006.013.01.027.01.04v.184a.036.036 0 01-.01.028.016.016 0 01-.022 0l-.106-.061c-.073-.043-.107-.008-.107.106v.447a.036.036 0 01-.01.029.016.016 0 01-.022 0l-.149-.087a.06.06 0 01-.022-.027.088.088 0 01-.01-.04v-.85c0-.006 0-.012.002-.017a.04.04 0 01.008-.014.017.017 0 01.022 0l.137.08c.01.006.018.016.023.027.006.012.01.026.01.04v.042a.106.106 0 01.064-.028c.033 0 .065.01.092.028l.068.046zM31.293 16.472a.081.081 0 01.015-.04c.008-.01.02-.011.036 0l.144.083a.052.052 0 01.02.022c.004.01.007.022.007.033v.012l-.093.308a.09.09 0 01-.015.03c-.008.008-.02.008-.035 0l-.089-.051a.04.04 0 01-.018-.022.07.07 0 01-.007-.032l.035-.343zM32.25 17.308a.337.337 0 01-.137-.153c-.008-.018-.016-.033-.021-.048v.393a.036.036 0 01-.01.029.016.016 0 01-.022 0l-.15-.087a.055.055 0 01-.021-.027.088.088 0 01-.01-.04V16.18a.04.04 0 01.01-.03.018.018 0 01.022 0l.144.084a.06.06 0 01.022.027.09.09 0 01.01.04v.042l.022-.025a.067.067 0 01.03-.017.09.09 0 01.045 0 .21.21 0 01.066.027.504.504 0 01.183.206.85.85 0 01.081.364v.146a.602.602 0 01-.023.172.22.22 0 01-.058.097.114.114 0 01-.083.03.22.22 0 01-.1-.035zm.053-.41a.787.787 0 000-.106.402.402 0 00-.027-.126.172.172 0 00-.079-.093.08.08 0 00-.044-.013.05.05 0 00-.032.015.137.137 0 00-.02.035.325.325 0 00-.01.048v.127l.01.058c.005.02.012.04.02.058.008.019.019.036.032.052a.152.152 0 00.044.038c.037.022.064.022.079 0a.183.183 0 00.027-.092zM32.588 17.216a.194.194 0 01.06-.164.225.225 0 01.194 0l.138.044a.2.2 0 00-.016-.081.119.119 0 00-.053-.06.068.068 0 00-.041-.012.077.077 0 00-.023.009.026.026 0 01-.02.006.073.073 0 01-.022-.01l-.15-.085a.06.06 0 01-.026-.055.162.162 0 01.024-.074.14.14 0 01.058-.05.18.18 0 01.088-.013c.04.005.078.018.112.04a.535.535 0 01.213.226.623.623 0 01.068.299v.551a.04.04 0 01-.01.029.016.016 0 01-.022 0l-.149-.085a.066.066 0 01-.022-.028.09.09 0 01-.009-.04v-.057a.108.108 0 01-.07.046.172.172 0 01-.106-.032.35.35 0 01-.09-.073.531.531 0 01-.108-.213.596.596 0 01-.018-.118zm.269.197c.014.01.031.014.049.015a.061.061 0 00.038-.015.093.093 0 00.027-.04.185.185 0 00.01-.064l-.107-.037a.067.067 0 00-.052 0 .048.048 0 00-.02.045.107.107 0 00.055.096zM33.614 18.204a.095.095 0 00.08.015c.023-.008.034-.034.034-.076v-.127a.182.182 0 01-.023.026.058.058 0 01-.031.016.091.091 0 01-.045 0 .222.222 0 01-.065-.027.425.425 0 01-.1-.082.554.554 0 01-.083-.123.816.816 0 01-.081-.355v-.065-.064c0-.056.008-.112.024-.167a.213.213 0 01.057-.093.116.116 0 01.082-.029.24.24 0 01.101.033.369.369 0 01.15.16.701.701 0 01.02.048v-.042l.001-.016a.04.04 0 01.008-.014.02.02 0 01.023 0l.137.079c.01.007.018.016.022.028.006.012.01.025.01.039v.885a.445.445 0 01-.025.165.186.186 0 01-.066.092.148.148 0 01-.106.018.378.378 0 01-.13-.05.585.585 0 01-.241-.26.57.57 0 01-.061-.238.033.033 0 01.01-.03.017.017 0 01.022 0l.153.088c.02.014.033.035.037.058.006.02.014.039.026.056a.14.14 0 00.06.052zm-.106-.722v.089a.326.326 0 00.029.121.175.175 0 00.077.087c.032.019.057.019.074 0a.12.12 0 00.03-.076.513.513 0 000-.115.321.321 0 00-.03-.106.184.184 0 00-.074-.083c-.034-.02-.06-.021-.076 0a.13.13 0 00-.027.083h-.003zM34.256 18.079c0 .025.003.05.01.074.006.02.014.04.025.059a.2.2 0 00.127.091.05.05 0 00.035-.01.039.039 0 01.019-.01c.007 0 .014.002.02.006l.154.089a.06.06 0 01.025.055.13.13 0 01-.017.056.164.164 0 01-.151.084.283.283 0 01-.14-.045.557.557 0 01-.137-.113.65.65 0 01-.1-.155.873.873 0 01-.061-.19 1.11 1.11 0 01-.022-.218c0-.062.007-.123.022-.183a.271.271 0 01.06-.12.147.147 0 01.101-.045.25.25 0 01.136.042.49.49 0 01.147.13c.04.052.074.11.1.172a1.054 1.054 0 01.072.377v.05a.04.04 0 01-.01.03.016.016 0 01-.022 0l-.393-.226zm.106-.288c-.032-.019-.058-.019-.075 0a.145.145 0 00-.031.084l.213.124a.391.391 0 00-.031-.12.188.188 0 00-.076-.088zM35.668 19.214a.04.04 0 01-.01.029.018.018 0 01-.022 0l-.149-.086a.06.06 0 01-.022-.028.088.088 0 01-.01-.04v-.46a.381.381 0 00-.024-.14.182.182 0 00-.078-.092c-.036-.02-.062-.02-.078 0a.194.194 0 00-.024.106v.461a.04.04 0 01-.01.029.016.016 0 01-.022 0l-.149-.085a.067.067 0 01-.022-.028.093.093 0 01-.01-.04v-.852a.04.04 0 01.01-.028.016.016 0 01.01-.005c.005 0 .009.002.012.005l.144.081a.06.06 0 01.022.028.09.09 0 01.01.04v.042a.126.126 0 01.023-.024.064.064 0 01.034-.016.116.116 0 01.047 0 .43.43 0 01.249.233.717.717 0 01.052.16c.013.064.02.13.02.195l-.003.515zM36.415 19.152V19.293c0 .05-.01.1-.026.148a.219.219 0 01-.065.097.149.149 0 01-.1.032.27.27 0 01-.13-.043.518.518 0 01-.13-.107.708.708 0 01-.1-.147.846.846 0 01-.09-.35v-.07-.07a.415.415 0 01.024-.149.214.214 0 01.065-.096.153.153 0 01.106-.033c.046.003.091.017.13.042.049.028.093.064.13.106a.762.762 0 01.186.5zm-.426-.117a.32.32 0 00.033.127.198.198 0 00.076.083c.032.02.057.02.077 0a.118.118 0 00.031-.09.51.51 0 000-.06.598.598 0 000-.063.302.302 0 00-.032-.127.193.193 0 00-.076-.082.063.063 0 00-.076 0 .123.123 0 00-.033.089v.06c0 .024-.005.044-.004.063h.004zM36.803 19.55c0 .023.004.048.012.07.008.02.022.036.04.046l.094.055c.01.006.018.016.022.027a.09.09 0 01.01.04v.184a.037.037 0 01-.01.028.016.016 0 01-.022 0l-.113-.064a.412.412 0 01-.1-.084.543.543 0 01-.077-.114.658.658 0 01-.069-.303v-.305l-.087-.05a.06.06 0 01-.022-.028.09.09 0 01-.01-.039v-.184a.036.036 0 01.01-.029.016.016 0 01.011-.004c.004 0 .008.001.011.004l.087.051v-.297c0-.005 0-.01.002-.015a.039.039 0 01.008-.013.018.018 0 01.022 0l.15.086a.06.06 0 01.022.028c.006.012.01.025.01.039v.297l.132.076c.01.007.019.017.024.028a.091.091 0 01.008.04v.183a.04.04 0 01-.008.03.02.02 0 01-.023 0l-.134-.076v.292zM37.596 19.432l.145.084c.01.007.017.016.022.027.006.012.01.026.01.04v.184c0 .006 0 .01-.002.016a.039.039 0 01-.008.013.018.018 0 01-.022 0l-.145-.084v.614a.037.037 0 01-.01.029.016.016 0 01-.022 0l-.149-.087a.055.055 0 01-.022-.027.089.089 0 01-.01-.04v-.614l-.08-.047a.053.053 0 01-.026-.018.107.107 0 01-.009-.04v-.184c0-.01.003-.02.009-.029a.02.02 0 01.023 0l.081.048v-.049a.427.427 0 01.02-.138.16.16 0 01.053-.079.116.116 0 01.081-.021.243.243 0 01.107.035l.111.065c.01.007.019.016.023.028.006.012.01.026.01.04v.183c0 .006 0 .01-.002.016a.04.04 0 01-.008.014.017.017 0 01-.023 0l-.106-.062c-.02-.01-.033-.01-.04 0a.089.089 0 00-.011.05v.033zM38.47 20.34v.14c0 .05-.01.1-.026.148a.22.22 0 01-.065.096.145.145 0 01-.099.032.269.269 0 01-.13-.043.52.52 0 01-.132-.106.703.703 0 01-.099-.148.851.851 0 01-.091-.349v-.071-.07c0-.05.008-.1.024-.148a.213.213 0 01.066-.096.155.155 0 01.1-.033.267.267 0 01.131.041c.05.029.094.064.131.107a.79.79 0 01.19.5zm-.425-.118a.307.307 0 00.032.127.194.194 0 00.077.083.065.065 0 00.076 0 .118.118 0 00.032-.089v-.06-.063a.305.305 0 00-.032-.127.2.2 0 00-.076-.083c-.032-.018-.058-.02-.077 0a.116.116 0 00-.032.09.559.559 0 000 .06.58.58 0 00-.004.062h.004zM38.576 20.046a.04.04 0 01.008-.03.017.017 0 01.012-.004c.004 0 .008.002.01.004l.15.086c.01.006.017.016.022.027.006.013.01.026.01.04v.46c-.001.047.007.094.022.138a.17.17 0 00.075.091c.035.02.06.018.074-.005a.226.226 0 00.021-.113v-.46a.04.04 0 01.01-.029.018.018 0 01.022 0l.15.087a.06.06 0 01.022.027.09.09 0 01.01.04v.852a.04.04 0 01-.01.029.016.016 0 01-.022 0l-.138-.079a.06.06 0 01-.022-.028.09.09 0 01-.01-.039v-.043a.135.135 0 01-.023.027.078.078 0 01-.033.015.119.119 0 01-.047 0 .207.207 0 01-.063-.026.47.47 0 01-.183-.205.818.818 0 01-.067-.354v-.508zM39.96 21.691a.036.036 0 01-.01.029.016.016 0 01-.022 0l-.15-.086a.056.056 0 01-.022-.028.09.09 0 01-.01-.04v-.459a.387.387 0 00-.024-.14.184.184 0 00-.078-.092c-.036-.021-.061-.02-.077 0a.197.197 0 00-.025.112v.46a.036.036 0 01-.01.028.016.016 0 01-.01.005.016.016 0 01-.012-.005l-.149-.086a.06.06 0 01-.022-.028.09.09 0 01-.01-.04v-.85c0-.006 0-.011.002-.016a.042.042 0 01.008-.014.017.017 0 01.022 0l.144.082c.01.007.017.016.022.027.006.013.01.027.01.04v.042a.111.111 0 01.023-.024.085.085 0 01.034-.016.119.119 0 01.047 0 .2.2 0 01.062.026.431.431 0 01.187.206.724.724 0 01.052.16c.014.064.02.13.02.195l-.003.512zM40.33 20.992a.237.237 0 01.061.046.406.406 0 01.098.154v-.387a.04.04 0 01.01-.029.018.018 0 01.022 0l.149.086c.01.007.018.017.022.028a.09.09 0 01.01.04v1.192a.037.037 0 01-.01.029.016.016 0 01-.022 0l-.144-.083a.057.057 0 01-.022-.027.099.099 0 01-.01-.04v-.042a.245.245 0 01-.022.026.08.08 0 01-.075.017.225.225 0 01-.066-.028.44.44 0 01-.1-.082.53.53 0 01-.083-.124.808.808 0 01-.081-.362v-.075-.073c0-.058.007-.116.023-.171.01-.037.03-.07.058-.097a.112.112 0 01.083-.03c.035.002.07.013.1.032zm-.053.409a.821.821 0 000 .106.427.427 0 00.028.127c.015.039.042.072.079.092.013.01.029.014.044.014a.051.051 0 00.032-.016.093.093 0 00.02-.035.268.268 0 00.01-.047v-.063-.064c0-.02-.006-.039-.01-.059a.298.298 0 00-.02-.058.235.235 0 00-.032-.05.16.16 0 00-.044-.04c-.038-.021-.063-.02-.079 0a.188.188 0 00-.028.093z" fill="#FAFAFA"/></svg>