<svg xmlns="http://www.w3.org/2000/svg" xmlns:xlink="http://www.w3.org/1999/xlink" height="512" width="512"><linearGradient id="b" gradientUnits="userSpaceOnUse" x1="256" x2="256" y1="512" y2="0"><stop offset="0" stop-color="#fd3a84"/><stop offset="1" stop-color="#ffa68d"/></linearGradient><linearGradient id="a" gradientUnits="userSpaceOnUse"><stop offset="0" stop-color="#ffc2cc"/><stop offset="1" stop-color="#fff2f4"/></linearGradient><linearGradient id="c" x1="256" x2="256" xlink:href="#a" y1="301" y2="91"/><linearGradient id="d" x1="256" x2="256" xlink:href="#a" y1="421" y2="331"/><path d="M355.826 512H156.175a14.99 14.99 0 0 1-10.606-4.394L4.394 366.432A14.996 14.996 0 0 1 0 355.826V156.174c0-3.978 1.58-7.793 4.394-10.606L145.568 4.394A14.996 14.996 0 0 1 156.175 0h199.651c3.979 0 7.794 1.581 10.606 4.394l141.174 141.174A15 15 0 0 1 512 156.174v199.651c0 3.978-1.58 7.793-4.394 10.606L366.433 507.606A15 15 0 0 1 355.826 512z" fill="url(#b)"/><path d="M256 301c-24.813 0-45-20.187-45-45V136c0-24.813 20.187-45 45-45s45 20.187 45 45v120c0 24.813-20.187 45-45 45z" fill="url(#c)"/><path d="M256 421c-24.813 0-45-20.187-45-45s20.187-45 45-45 45 20.187 45 45-20.187 45-45 45z" fill="url(#d)"/></svg>