<svg width="411" height="269" viewBox="0 0 411 269" fill="none" xmlns="http://www.w3.org/2000/svg">
<path d="M411 236.393H0V236.574H411V236.393Z" fill="#EBEBEB"/>
<path d="M369.818 248.011H342.593V248.192H369.818V248.011Z" fill="#EBEBEB"/>
<path d="M272.263 249.974H265.12V250.156H272.263V249.974Z" fill="#EBEBEB"/>
<path d="M341.771 241.31H325.997V241.491H341.771V241.31Z" fill="#EBEBEB"/>
<path d="M78.6243 242.523H43.1221V242.704H78.6243V242.523Z" fill="#EBEBEB"/>
<path d="M91.1516 242.523H85.9483V242.704H91.1516V242.523Z" fill="#EBEBEB"/>
<path d="M185.073 245.57H108.068V245.751H185.073V245.57Z" fill="#EBEBEB"/>
<path d="M194.814 204.19H36.094C34.8506 204.189 33.6589 203.753 32.7804 202.98C31.902 202.207 31.4086 201.16 31.4086 200.068V4.0867C31.4194 3.00078 31.9176 1.96247 32.7949 1.19729C33.6722 0.432106 34.8577 0.00186023 36.094 0H194.814C196.059 0 197.253 0.434365 198.133 1.20754C199.013 1.98071 199.508 3.02936 199.508 4.1228V200.068C199.508 201.161 199.013 202.21 198.133 202.983C197.253 203.756 196.059 204.19 194.814 204.19ZM36.094 0.144407C34.9051 0.146319 33.7657 0.562509 32.9257 1.30163C32.0858 2.04074 31.6141 3.04239 31.6141 4.0867V200.068C31.6141 201.112 32.0858 202.114 32.9257 202.853C33.7657 203.592 34.9051 204.008 36.094 204.01H194.814C196.004 204.008 197.144 203.592 197.985 202.853C198.826 202.114 199.3 201.113 199.302 200.068V4.0867C199.3 3.04172 198.826 2.04009 197.985 1.30118C197.144 0.562275 196.004 0.146315 194.814 0.144407H36.094Z" fill="#EBEBEB"/>
<path d="M372.621 204.19H213.893C212.648 204.189 211.456 203.754 210.576 202.981C209.696 202.208 209.201 201.161 209.199 200.068V4.0867C209.212 3.00012 209.712 1.96181 210.591 1.19683C211.469 0.431853 212.656 0.00183995 213.893 0H372.621C373.856 0.00375781 375.039 0.434843 375.915 1.19982C376.79 1.9648 377.287 3.00203 377.298 4.0867V200.068C377.298 201.159 376.806 202.205 375.929 202.978C375.052 203.751 373.863 204.187 372.621 204.19ZM213.893 0.144407C212.703 0.146315 211.563 0.562275 210.721 1.30118C209.88 2.04009 209.407 3.04172 209.404 4.0867V200.068C209.407 201.113 209.88 202.114 210.721 202.853C211.563 203.592 212.703 204.008 213.893 204.01H372.621C373.81 204.008 374.951 203.592 375.792 202.853C376.633 202.114 377.107 201.113 377.109 200.068V4.0867C377.107 3.04172 376.633 2.04009 375.792 1.30118C374.951 0.562275 373.81 0.146315 372.621 0.144407H213.893Z" fill="#EBEBEB"/>
<path d="M61.2719 141.424H189.192L189.192 17.8847L61.2719 17.8847L61.2719 141.424Z" fill="#E6E6E6"/>
<path d="M57.0961 141.424H187.243L187.243 17.8847L57.0961 17.8847L57.0961 141.424Z" fill="#F0F0F0"/>
<path d="M61.2801 141.424H189.2V146.811H57.1948L61.2801 141.424Z" fill="#E6E6E6"/>
<path d="M50.1502 141.424H180.289L176.204 146.811H46.0567L50.1502 141.424Z" fill="#F0F0F0"/>
<path d="M181.407 136.291V23.0183L62.9487 23.0183L62.9487 136.291H181.407Z" fill="#FAFAFA"/>
<path d="M161.449 136.291L115.696 23.0256H99.5031L145.256 136.291H161.449Z" fill="white"/>
<path d="M178.695 132.695C178.754 132.695 178.813 132.685 178.868 132.665C178.922 132.645 178.972 132.615 179.014 132.579C179.056 132.542 179.09 132.498 179.112 132.45C179.135 132.402 179.147 132.35 179.147 132.298V26.3613C179.145 26.2573 179.096 26.1581 179.011 26.0852C178.927 26.0123 178.813 25.9714 178.695 25.9714C178.636 25.9714 178.579 25.9815 178.525 26.0011C178.471 26.0207 178.422 26.0494 178.381 26.0856C178.339 26.1218 178.307 26.1648 178.284 26.2121C178.262 26.2594 178.251 26.3101 178.251 26.3613V132.298C178.251 132.402 178.297 132.502 178.38 132.576C178.463 132.65 178.576 132.693 178.695 132.695Z" fill="#F0F0F0"/>
<path d="M126.983 136.291L81.23 23.0256H74.9171L120.67 136.291H126.983Z" fill="white"/>
<path d="M63.6886 136.298L63.6886 23.0256H62.9488L62.9488 136.298H63.6886Z" fill="#E6E6E6"/>
<path opacity="0.5" d="M55.7151 32.9318H183.643L184.177 25.0183H56.2577L55.7151 32.9318Z" fill="#E0E0E0"/>
<path opacity="0.5" d="M55.7151 45.9356H183.643L184.177 38.0222H56.2577L55.7151 45.9356Z" fill="#E0E0E0"/>
<path opacity="0.5" d="M55.7151 58.9394H183.643L184.177 51.0332H56.2577L55.7151 58.9394Z" fill="#E0E0E0"/>
<path opacity="0.5" d="M55.7151 71.9431H183.643L184.177 64.0369H56.2577L55.7151 71.9431Z" fill="#E0E0E0"/>
<path opacity="0.5" d="M55.7151 84.9542H183.643L184.177 77.0407H56.2577L55.7151 84.9542Z" fill="#E0E0E0"/>
<path opacity="0.5" d="M55.7151 97.958H183.643L184.177 90.0445H56.2577L55.7151 97.958Z" fill="#E0E0E0"/>
<path d="M349.087 34.6574H247.726V74.5496H349.087V34.6574Z" fill="#F5F5F5"/>
<path d="M349.087 34.6574H247.726V36.0582H349.087V34.6574Z" fill="#E0E0E0"/>
<path d="M349.087 73.149H247.726V74.5498H349.087V73.149Z" fill="#E0E0E0"/>
<path d="M296.816 236.393L295.394 74.5498H301.419L299.997 236.393H296.816Z" fill="#EBEBEB"/>
<path d="M253.702 236.393L307.814 74.5498H313.848L256.883 236.393H253.702Z" fill="#EBEBEB"/>
<path d="M343.119 236.393L289.007 74.5498H282.973L339.938 236.393H343.119Z" fill="#EBEBEB"/>
<path d="M66.7711 239.159H72.599L72.599 171.446H66.7711L66.7711 239.159Z" fill="#E6E6E6"/>
<path d="M64.9216 239.159H68.974L68.974 171.446H64.9216L64.9216 239.159Z" fill="#F0F0F0"/>
<path d="M192.521 168.291H63.6064V177.728H192.521V168.291Z" fill="#F0F0F0"/>
<path d="M189.2 236.01H195.028V177.735H189.2V236.01Z" fill="#E6E6E6"/>
<path d="M187.358 236.01H191.411V177.735H187.358V236.01Z" fill="#F0F0F0"/>
<path d="M230.703 236.01H236.53V177.735H230.703V236.01Z" fill="#E6E6E6"/>
<path d="M228.861 236.01H232.914V177.735H228.861V236.01Z" fill="#F0F0F0"/>
<path d="M103.671 236.01H109.499L109.499 177.735H103.671L103.671 236.01Z" fill="#E6E6E6"/>
<path d="M101.821 236.01H105.874L105.874 177.735H101.821L101.821 236.01Z" fill="#F0F0F0"/>
<path d="M192.512 177.735H237.854V168.298H192.512V177.735Z" fill="#E6E6E6"/>
<path d="M165.37 161.244H109.499V168.291H165.37V161.244Z" fill="#EBEBEB"/>
<path d="M165.37 168.298H192.726V161.251H165.37V168.298Z" fill="#E0E0E0"/>
<path d="M172.439 164.775H185.657C186.283 164.775 186.791 164.329 186.791 163.778C186.791 163.228 186.283 162.782 185.657 162.782H172.439C171.813 162.782 171.305 163.228 171.305 163.778C171.305 164.329 171.813 164.775 172.439 164.775Z" fill="#F5F5F5"/>
<path d="M139.452 156.183H128.199V161.244H139.452V156.183Z" fill="#F5F5F5"/>
<path d="M134.233 154.067H133.419V156.183H134.233V154.067Z" fill="#E6E6E6"/>
<path d="M149.489 157.063H148.675V158.118H149.489V157.063Z" fill="#E6E6E6"/>
<path d="M155.933 158.118H142.231V161.244H155.933V158.118Z" fill="#F0F0F0"/>
<path d="M205.5 269C293.522 269 364.878 265.341 364.878 260.827C364.878 256.313 293.522 252.653 205.5 252.653C117.478 252.653 46.1224 256.313 46.1224 260.827C46.1224 265.341 117.478 269 205.5 269Z" fill="#F5F5F5"/>
<path d="M187.975 26.383H182.221V27.105H187.975V26.383Z" fill="#407BFF"/>
<path d="M176.911 26.383H148.938V27.105H176.911V26.383Z" fill="#407BFF"/>
<path d="M330 127.482H71.5962C69.0416 127.431 66.5936 126.572 64.7027 125.062C62.8118 123.553 61.6052 121.494 61.3047 119.265L51.8928 37.1269C51.7418 36.0853 51.8475 35.0273 52.203 34.0248C52.5584 33.0223 53.1551 32.0986 53.9527 31.3165C54.7503 30.5344 55.7301 29.9122 56.8256 29.492C57.9211 29.0718 59.1067 28.8635 60.3019 28.8813H318.706C321.261 28.9331 323.709 29.7925 325.601 31.3018C327.493 32.8111 328.702 34.869 329.006 37.098L338.409 119.236C338.562 120.278 338.457 121.337 338.102 122.34C337.747 123.343 337.15 124.267 336.353 125.049C335.555 125.832 334.574 126.454 333.478 126.874C332.382 127.293 331.196 127.501 330 127.482Z" fill="#407BFF"/>
<path opacity="0.3" d="M108.594 121.301H77.5146C75.0904 121.25 72.7682 120.434 70.9733 119.002C69.1783 117.57 68.0308 115.618 67.741 113.503L59.6525 42.8525C59.5122 41.8657 59.6149 40.864 59.9538 39.9151C60.2927 38.9663 60.8598 38.0925 61.6167 37.353C62.3736 36.6135 63.3027 36.0256 64.3409 35.629C65.3791 35.2324 66.5022 35.0365 67.6342 35.0545H98.714C101.146 35.0995 103.477 35.9161 105.277 37.3535C107.076 38.7909 108.223 40.7519 108.504 42.8741L116.601 113.525C116.738 114.512 116.631 115.513 116.289 116.461C115.947 117.409 115.377 118.281 114.618 119.018C113.859 119.756 112.928 120.341 111.889 120.735C110.85 121.129 109.726 121.322 108.594 121.301Z" fill="white"/>
<path d="M162.929 124.189H130.139C127.581 124.137 125.129 123.276 123.236 121.764C121.342 120.252 120.133 118.19 119.831 115.958L111.175 40.4337C111.023 39.3903 111.128 38.3303 111.484 37.3259C111.84 36.3214 112.438 35.3961 113.237 34.613C114.037 33.8298 115.019 33.2072 116.117 32.7875C117.215 32.3678 118.404 32.1609 119.601 32.1809H152.391C154.953 32.2322 157.408 33.0959 159.303 34.6127C161.197 36.1295 162.403 38.197 162.698 40.4337L171.354 116.016C171.491 117.053 171.375 118.104 171.012 119.098C170.649 120.092 170.049 121.007 169.251 121.781C168.453 122.555 167.477 123.17 166.386 123.585C165.296 124.001 164.117 124.207 162.929 124.189Z" fill="white"/>
<path opacity="0.3" d="M214.895 121.301H183.816C181.392 121.252 179.07 120.436 177.276 119.003C175.482 117.571 174.337 115.618 174.05 113.503L165.954 42.8525C165.813 41.8657 165.916 40.864 166.255 39.9151C166.594 38.9663 167.161 38.0925 167.918 37.353C168.675 36.6135 169.604 36.0256 170.642 35.629C171.68 35.2324 172.803 35.0365 173.935 35.0545H205.015C207.439 35.1052 209.761 35.9214 211.556 37.3535C213.351 38.7856 214.499 40.7378 214.789 42.8525L222.877 113.503C223.017 114.49 222.915 115.492 222.576 116.441C222.237 117.389 221.67 118.263 220.913 119.003C220.156 119.742 219.227 120.33 218.189 120.727C217.151 121.123 216.027 121.319 214.895 121.301Z" fill="white"/>
<path opacity="0.2" d="M268.046 121.301H236.966C234.543 121.25 232.222 120.434 230.428 119.002C228.635 117.57 227.489 115.617 227.201 113.503L219.104 42.8526C218.966 41.8657 219.071 40.8642 219.412 39.9159C219.752 38.9676 220.32 38.0945 221.077 37.3554C221.835 36.6163 222.764 36.0285 223.801 35.6316C224.839 35.2347 225.962 35.038 227.094 35.0547H258.166C260.599 35.0992 262.932 35.9153 264.735 37.3525C266.537 38.7896 267.687 40.7508 267.972 42.8743L276.06 113.525C276.197 114.513 276.091 115.514 275.749 116.463C275.406 117.411 274.835 118.283 274.075 119.021C273.315 119.759 272.383 120.344 271.343 120.737C270.303 121.131 269.178 121.323 268.046 121.301Z" fill="white"/>
<path opacity="0.1" d="M321.196 121.301H290.117C287.693 121.25 285.372 120.434 283.579 119.002C281.785 117.57 280.639 115.617 280.351 113.503L272.255 42.8526C272.117 41.8657 272.222 40.8642 272.562 39.9159C272.903 38.9676 273.471 38.0945 274.228 37.3554C274.985 36.6163 275.914 36.0285 276.952 35.6316C277.99 35.2347 279.113 35.038 280.244 35.0547H311.316C313.74 35.1054 316.062 35.9215 317.857 37.3536C319.652 38.7857 320.8 40.7379 321.09 42.8526L329.178 113.503C329.318 114.49 329.216 115.492 328.877 116.441C328.538 117.39 327.971 118.263 327.214 119.003C326.457 119.742 325.528 120.33 324.49 120.727C323.452 121.123 322.328 121.319 321.196 121.301Z" fill="white"/>
<path d="M201.571 58.2102C201.419 57.1272 200.827 56.1287 199.905 55.3979C198.982 54.6671 197.79 54.2531 196.548 54.2318C195.984 54.2314 195.425 54.3296 194.904 54.5206C194.364 53.7073 193.595 53.0298 192.671 52.5531C191.747 52.0764 190.699 51.8165 189.627 51.7985C188.415 51.7792 187.237 52.1576 186.325 52.8599C185.413 53.5622 184.832 54.5379 184.695 55.5964C184.116 55.6211 183.549 55.7509 183.029 55.9777C182.51 56.2044 182.05 56.5232 181.677 56.9139C181.305 57.3046 181.029 57.7587 180.867 58.2478C180.704 58.7368 180.659 59.2501 180.733 59.7553C180.884 60.8882 181.496 61.935 182.457 62.7022C183.418 63.4693 184.663 63.905 185.961 63.9287H201.069C201.499 63.9357 201.926 63.8615 202.32 63.711C202.715 63.5606 203.068 63.3374 203.355 63.0567C203.643 62.776 203.859 62.4442 203.987 62.0839C204.116 61.7236 204.156 61.3431 204.103 60.9683C204.015 60.347 203.732 59.7594 203.285 59.272C202.837 58.7846 202.244 58.4168 201.571 58.2102Z" fill="white"/>
<path d="M149.201 51.1775C149.022 49.9144 148.331 48.7502 147.255 47.8977C146.179 47.0453 144.789 46.5615 143.34 46.5349C142.669 46.533 142.004 46.6483 141.384 46.8742C140.753 45.9258 139.856 45.1356 138.778 44.5793C137.7 44.023 136.477 43.7193 135.227 43.6973C133.813 43.6767 132.44 44.1191 131.376 44.9386C130.313 45.7581 129.634 46.8959 129.473 48.1306C128.798 48.1627 128.137 48.3165 127.532 48.5825C126.927 48.8485 126.391 49.2209 125.957 49.6767C125.523 50.1325 125.2 50.6618 125.009 51.2318C124.818 51.8017 124.762 52.4001 124.845 52.9898C125.02 54.3137 125.735 55.537 126.858 56.4331C127.981 57.3293 129.436 57.8375 130.953 57.8635H148.601C149.103 57.872 149.601 57.7857 150.061 57.6105C150.521 57.4353 150.933 57.1753 151.269 56.848C151.605 56.5207 151.857 56.1339 152.008 55.7137C152.159 55.2934 152.205 54.8496 152.144 54.4122C152.042 53.6867 151.713 53.0001 151.194 52.429C150.674 51.8579 149.984 51.4247 149.201 51.1775Z" fill="#407BFF"/>
<path d="M133.616 65.38C133.434 65.3798 133.258 65.3207 133.123 65.2139C133.051 65.1577 132.992 65.0894 132.95 65.0131C132.908 64.9369 132.884 64.8541 132.879 64.7696C132.873 64.685 132.887 64.6004 132.919 64.5205C132.951 64.4407 133.001 64.3671 133.065 64.3042L137.652 59.8276C137.785 59.712 137.963 59.6454 138.15 59.6414C138.337 59.6375 138.518 59.6966 138.657 59.8066C138.796 59.9165 138.882 60.069 138.897 60.2327C138.911 60.3964 138.854 60.5589 138.737 60.6868L134.159 65.1634C134.091 65.2313 134.007 65.2857 133.914 65.3231C133.82 65.3604 133.719 65.3798 133.616 65.38Z" fill="#407BFF"/>
<path d="M138.811 65.38C138.629 65.3798 138.453 65.3207 138.318 65.2139C138.246 65.1577 138.187 65.0894 138.145 65.0131C138.104 64.9369 138.079 64.8541 138.074 64.7696C138.069 64.685 138.082 64.6004 138.114 64.5205C138.146 64.4407 138.196 64.3671 138.26 64.3042L142.847 59.8276C142.98 59.712 143.158 59.6454 143.345 59.6414C143.532 59.6375 143.713 59.6966 143.852 59.8066C143.991 59.9165 144.077 60.069 144.092 60.2327C144.106 60.3964 144.049 60.5589 143.932 60.6868L139.354 65.1634C139.286 65.2313 139.203 65.2857 139.109 65.3231C139.015 65.3604 138.914 65.3798 138.811 65.38Z" fill="#407BFF"/>
<path d="M128.421 65.38C128.239 65.3798 128.063 65.3207 127.928 65.2139C127.856 65.1577 127.797 65.0894 127.755 65.0131C127.713 64.9369 127.689 64.8541 127.684 64.7696C127.678 64.685 127.692 64.6004 127.724 64.5205C127.756 64.4407 127.806 64.3671 127.87 64.3042L132.457 59.8276C132.59 59.712 132.768 59.6454 132.955 59.6414C133.142 59.6375 133.323 59.6966 133.462 59.8066C133.601 59.9165 133.687 60.069 133.701 60.2327C133.716 60.3964 133.659 60.5589 133.542 60.6868L128.964 65.1634C128.896 65.2313 128.812 65.2857 128.719 65.3231C128.625 65.3604 128.524 65.3798 128.421 65.38Z" fill="#407BFF"/>
<g opacity="0.4">
<path opacity="0.4" d="M306.236 55.1993C306.102 54.2664 305.591 53.4067 304.796 52.7772C304.001 52.1476 302.974 51.79 301.904 51.7697C301.408 51.7666 300.916 51.8501 300.457 52.0152C299.992 51.315 299.329 50.7315 298.533 50.3206C297.737 49.9097 296.835 49.6852 295.912 49.6686C294.862 49.6483 293.842 49.9732 293.051 50.5797C292.26 51.1862 291.756 52.0304 291.637 52.9466C291.136 52.9687 290.644 53.0819 290.195 53.2792C289.745 53.4765 289.347 53.7536 289.026 54.0929C288.705 54.4321 288.467 54.8263 288.328 55.2504C288.189 55.6745 288.151 56.1193 288.218 56.5568C288.347 57.5358 288.875 58.4409 289.704 59.1045C290.534 59.7681 291.609 60.1455 292.731 60.1669H305.784C306.154 60.1738 306.522 60.1103 306.861 59.981C307.201 59.8516 307.505 59.6594 307.752 59.4175C308 59.1755 308.185 58.8895 308.295 58.5789C308.405 58.2684 308.437 57.9407 308.39 57.6182C308.326 57.0779 308.09 56.5644 307.709 56.1365C307.328 55.7087 306.818 55.3838 306.236 55.1993Z" fill="white"/>
<path opacity="0.4" d="M294.72 65.7049C294.586 65.7066 294.456 65.6626 294.358 65.5821C294.252 65.4977 294.188 65.3797 294.18 65.2538C294.172 65.128 294.221 65.0046 294.317 64.9106L297.605 61.7337C297.653 61.6863 297.71 61.6476 297.775 61.6197C297.839 61.5919 297.909 61.5755 297.981 61.5715C298.053 61.5674 298.125 61.5759 298.193 61.5963C298.261 61.6167 298.324 61.6487 298.378 61.6904C298.432 61.7321 298.476 61.7827 298.508 61.8394C298.539 61.8961 298.558 61.9577 298.562 62.0208C298.567 62.0838 298.557 62.147 298.534 62.2068C298.511 62.2665 298.475 62.3217 298.427 62.3691L295.139 65.546C295.087 65.5985 295.023 65.64 294.95 65.6675C294.878 65.695 294.799 65.7078 294.72 65.7049Z" fill="white"/>
<path opacity="0.4" d="M298.559 65.7049C298.492 65.7065 298.426 65.6965 298.364 65.6754C298.302 65.6544 298.245 65.6227 298.197 65.5821C298.146 65.5384 298.105 65.4862 298.078 65.4285C298.05 65.3709 298.036 65.309 298.036 65.2464C298.036 65.1838 298.05 65.1219 298.078 65.0642C298.105 65.0066 298.146 64.9543 298.197 64.9106L301.485 61.7337C301.532 61.6863 301.59 61.6476 301.655 61.6197C301.719 61.5919 301.789 61.5755 301.861 61.5715C301.933 61.5674 302.005 61.5759 302.073 61.5963C302.141 61.6167 302.204 61.6487 302.258 61.6904C302.312 61.7321 302.356 61.7827 302.387 61.8394C302.419 61.8961 302.438 61.9577 302.442 62.0208C302.447 62.0838 302.437 62.147 302.414 62.2068C302.391 62.2665 302.354 62.3217 302.307 62.3691L299.019 65.546C298.963 65.6036 298.892 65.6482 298.811 65.6759C298.731 65.7036 298.644 65.7136 298.559 65.7049Z" fill="white"/>
<path opacity="0.4" d="M290.881 65.7049C290.747 65.7059 290.618 65.662 290.519 65.5821C290.413 65.4977 290.349 65.3797 290.341 65.2538C290.333 65.128 290.383 65.0046 290.478 64.9106L293.766 61.7337C293.862 61.6401 293.997 61.5838 294.14 61.577C294.283 61.5702 294.424 61.6136 294.531 61.6976C294.585 61.7389 294.628 61.7891 294.66 61.8455C294.691 61.9019 294.709 61.9631 294.713 62.0257C294.717 62.0883 294.706 62.1509 294.682 62.2099C294.658 62.2689 294.62 62.323 294.572 62.3691L291.284 65.546C291.234 65.5966 291.172 65.6369 291.102 65.6644C291.033 65.6918 290.957 65.7056 290.881 65.7049Z" fill="white"/>
</g>
<g opacity="0.7">
<path opacity="0.7" d="M249.493 58.694C249.561 59.1569 249.514 59.6272 249.356 60.0728C249.198 60.5184 248.932 60.9289 248.577 61.2763C248.222 61.6236 247.786 61.8997 247.299 62.0858C246.812 62.2719 246.285 62.3636 245.753 62.3547C244.615 62.3334 243.525 61.9509 242.683 61.2779C241.841 60.605 241.306 59.6871 241.175 58.694C241.107 58.2313 241.154 57.7613 241.312 57.3161C241.47 56.8708 241.736 56.4608 242.091 56.114C242.446 55.7672 242.882 55.4917 243.37 55.3065C243.857 55.1212 244.384 55.0305 244.915 55.0405C246.052 55.0615 247.141 55.443 247.983 56.1145C248.824 56.786 249.361 57.7022 249.493 58.694Z" fill="white"/>
<path opacity="0.7" d="M246.148 66.102C246.06 66.1023 245.974 66.0736 245.909 66.0215C245.843 65.9694 245.803 65.8976 245.794 65.8204L245.597 64.1525C245.588 64.0693 245.616 63.9863 245.676 63.9214C245.736 63.8565 245.823 63.815 245.918 63.8059C246.012 63.7978 246.107 63.8228 246.181 63.8755C246.255 63.9283 246.302 64.0044 246.312 64.0875L246.501 65.7554C246.506 65.7962 246.501 65.8374 246.487 65.8766C246.474 65.9158 246.451 65.9522 246.422 65.9837C246.392 66.0153 246.355 66.0414 246.314 66.0604C246.272 66.0795 246.227 66.0911 246.181 66.0947L246.148 66.102Z" fill="white"/>
<path opacity="0.7" d="M244.709 53.5892C244.62 53.5878 244.535 53.5575 244.47 53.5042C244.405 53.4509 244.364 53.3783 244.356 53.3004L244.167 51.6397C244.158 51.5565 244.186 51.4735 244.246 51.4086C244.306 51.3437 244.393 51.3023 244.487 51.2931C244.534 51.2892 244.581 51.2933 244.625 51.3054C244.67 51.3174 244.712 51.3371 244.747 51.3632C244.783 51.3894 244.813 51.4216 244.835 51.4579C244.856 51.4942 244.87 51.5339 244.874 51.5747L245.071 53.2426C245.076 53.2834 245.071 53.3246 245.057 53.3638C245.044 53.403 245.021 53.4394 244.991 53.471C244.961 53.5025 244.925 53.5286 244.884 53.5476C244.842 53.5667 244.797 53.5784 244.751 53.582L244.709 53.5892Z" fill="white"/>
<path opacity="0.7" d="M239.202 59.0116H237.303C237.209 59.0098 237.119 58.9755 237.053 58.9161C236.987 58.8567 236.95 58.777 236.95 58.694C236.95 58.6116 236.987 58.5326 237.053 58.4744C237.12 58.4162 237.209 58.3835 237.303 58.3835H239.202C239.296 58.3835 239.386 58.4162 239.452 58.4744C239.518 58.5326 239.555 58.6116 239.555 58.694C239.555 58.777 239.519 58.8567 239.452 58.9161C239.386 58.9755 239.296 59.0098 239.202 59.0116Z" fill="white"/>
<path opacity="0.7" d="M253.406 59.0116H251.532C251.438 59.0098 251.348 58.9755 251.282 58.9161C251.215 58.8567 251.179 58.777 251.179 58.694C251.179 58.6116 251.216 58.5326 251.282 58.4744C251.348 58.4162 251.438 58.3835 251.532 58.3835H253.431C253.525 58.3835 253.614 58.4162 253.681 58.4744C253.747 58.5326 253.784 58.6116 253.784 58.694C253.784 58.7369 253.774 58.7794 253.755 58.819C253.736 58.8585 253.708 58.8942 253.673 58.9239C253.637 58.9536 253.595 58.9767 253.55 58.9917C253.504 59.0068 253.455 59.0136 253.406 59.0116Z" fill="white"/>
<path opacity="0.7" d="M251.614 64.0225C251.527 64.0211 251.442 63.993 251.376 63.9431L249.896 62.7662C249.833 62.7081 249.797 62.6311 249.796 62.5507C249.795 62.4703 249.828 62.3925 249.89 62.333C249.951 62.2734 250.036 62.2366 250.127 62.2299C250.219 62.2232 250.309 62.2471 250.381 62.2969L251.853 63.4738C251.92 63.5333 251.958 63.6138 251.958 63.6976C251.958 63.7815 251.92 63.8619 251.853 63.9214C251.791 63.981 251.706 64.0172 251.614 64.0225Z" fill="white"/>
<path opacity="0.7" d="M240.525 55.1777C240.437 55.1755 240.352 55.1447 240.287 55.0911L238.816 53.9141C238.781 53.8866 238.753 53.8534 238.733 53.8164C238.713 53.7794 238.702 53.7393 238.699 53.6984C238.697 53.6575 238.704 53.6166 238.72 53.5781C238.736 53.5395 238.76 53.504 238.791 53.4737C238.822 53.4434 238.86 53.4187 238.902 53.4012C238.944 53.3837 238.99 53.3737 239.037 53.3717C239.083 53.3696 239.13 53.3757 239.174 53.3895C239.218 53.4033 239.258 53.4245 239.292 53.452L240.772 54.629C240.825 54.6725 240.861 54.7289 240.877 54.7909C240.893 54.8529 240.887 54.9176 240.86 54.9766C240.834 55.0357 240.788 55.0864 240.728 55.1223C240.668 55.1581 240.598 55.1774 240.525 55.1777Z" fill="white"/>
<path opacity="0.7" d="M240.205 64.0225C240.117 64.0223 240.032 63.9941 239.966 63.9431C239.933 63.9142 239.907 63.8799 239.889 63.8421C239.871 63.8043 239.862 63.7638 239.862 63.7229C239.862 63.6819 239.871 63.6414 239.889 63.6036C239.907 63.5658 239.933 63.5315 239.966 63.5027L241.175 62.3258C241.208 62.2967 241.247 62.2737 241.29 62.2579C241.333 62.2422 241.379 62.2341 241.426 62.2341C241.472 62.2341 241.518 62.2422 241.561 62.2579C241.604 62.2737 241.643 62.2967 241.676 62.3258C241.743 62.3853 241.781 62.4657 241.781 62.5496C241.781 62.6334 241.743 62.7139 241.676 62.7734L240.468 63.9503C240.394 64.0033 240.3 64.0291 240.205 64.0225Z" fill="white"/>
<path opacity="0.7" d="M249.263 55.1776C249.219 55.178 249.175 55.1706 249.134 55.1557C249.093 55.1408 249.056 55.1188 249.025 55.091C248.992 55.0621 248.966 55.0278 248.948 54.99C248.93 54.9522 248.921 54.9117 248.921 54.8707C248.921 54.8298 248.93 54.7893 248.948 54.7515C248.966 54.7137 248.992 54.6794 249.025 54.6505L250.233 53.4736C250.3 53.4243 250.384 53.3978 250.471 53.3989C250.558 53.3999 250.642 53.4286 250.707 53.4795C250.772 53.5304 250.814 53.6002 250.825 53.676C250.836 53.7519 250.816 53.8287 250.768 53.8924L249.559 55.0693C249.524 55.107 249.478 55.1366 249.426 55.1554C249.375 55.1743 249.319 55.1819 249.263 55.1776Z" fill="white"/>
</g>
<path d="M93.9464 57.7626C93.8162 56.8411 93.3125 55.9917 92.5275 55.3698C91.7425 54.7479 90.7288 54.3952 89.672 54.3762C89.1835 54.3762 88.7 54.4622 88.2499 54.6289C87.7913 53.9366 87.1375 53.3597 86.3514 52.9538C85.5653 52.5478 84.6735 52.3265 83.7618 52.3112C82.7249 52.2824 81.7141 52.5991 80.9319 53.1977C80.1498 53.7963 79.6544 54.6326 79.5449 55.5387C79.0516 55.5611 78.5689 55.6727 78.1269 55.8664C77.6848 56.0601 77.2931 56.3318 76.976 56.6645C76.6589 56.9972 76.4234 57.3838 76.2841 57.8001C76.1448 58.2163 76.1048 58.6534 76.1665 59.0839C76.2953 60.0488 76.8175 60.9402 77.6365 61.5932C78.4555 62.2462 79.5159 62.6167 80.6217 62.6363H93.486C93.8522 62.643 94.2157 62.5803 94.5518 62.4525C94.8878 62.3246 95.1886 62.1347 95.4336 61.8955C95.6785 61.6564 95.8619 61.3737 95.9712 61.0667C96.0806 60.7596 96.1133 60.4355 96.0671 60.1164C95.9932 59.591 95.7562 59.0936 95.3822 58.6784C95.0082 58.2633 94.5115 57.9465 93.9464 57.7626Z" fill="white"/>
<path d="M81.1314 51.7046C80.4864 51.9842 79.9158 52.3801 79.4568 52.8666C78.9979 53.3531 78.661 53.9191 78.4681 54.5278C77.599 54.7043 76.8092 55.1039 76.1994 55.6758C75.4192 55.1152 74.918 54.3098 74.802 53.4303C74.7452 53.0361 74.7858 52.6357 74.921 52.2565C75.0562 51.8774 75.2829 51.5282 75.5855 51.2329C75.8882 50.9376 76.2598 50.703 76.6749 50.5452C77.0901 50.3874 77.5391 50.31 77.9914 50.3183C78.6009 50.3217 79.2013 50.4485 79.7459 50.6889C80.2906 50.9294 80.7647 51.277 81.1314 51.7046Z" fill="white"/>
<path d="M77.8434 49.0981C77.7681 49.0985 77.6954 49.0744 77.6392 49.0303C77.583 48.9863 77.5474 48.9256 77.5393 48.8598L77.3831 47.4158C77.3785 47.3811 77.382 47.3459 77.3933 47.3124C77.4046 47.2789 77.4235 47.2477 77.4488 47.2207C77.4741 47.1938 77.5054 47.1716 77.5407 47.1555C77.576 47.1393 77.6147 47.1297 77.6543 47.127C77.6939 47.123 77.7339 47.126 77.7721 47.136C77.8102 47.1459 77.8457 47.1625 77.8764 47.1847C77.9071 47.2069 77.9324 47.2344 77.9507 47.2654C77.9691 47.2964 77.9801 47.3304 77.9831 47.3652L78.1475 48.8093C78.1521 48.8444 78.1487 48.88 78.1375 48.9139C78.1263 48.9479 78.1075 48.9795 78.0823 49.0071C78.0571 49.0346 78.0259 49.0575 77.9905 49.0743C77.9551 49.0912 77.9163 49.1017 77.8763 49.1053L77.8434 49.0981Z" fill="white"/>
<path d="M73.158 53.6902H71.514C71.4741 53.6902 71.4345 53.6833 71.3976 53.6698C71.3607 53.6564 71.3272 53.6367 71.2989 53.6119C71.2707 53.5871 71.2483 53.5577 71.233 53.5253C71.2177 53.4928 71.2098 53.4581 71.2098 53.423C71.2087 53.3877 71.2158 53.3525 71.2307 53.3196C71.2456 53.2868 71.2679 53.2569 71.2964 53.2319C71.3249 53.2069 71.3589 53.1872 71.3963 53.1742C71.4337 53.1611 71.4737 53.1549 71.514 53.1559H73.158C73.2387 53.1559 73.316 53.184 73.373 53.2341C73.4301 53.2842 73.4621 53.3522 73.4621 53.423C73.4601 53.4933 73.4273 53.5602 73.3707 53.6099C73.3142 53.6596 73.238 53.6883 73.158 53.6902Z" fill="white"/>
<path d="M74.2841 50.4194C74.209 50.4202 74.136 50.3971 74.0786 50.3544L72.821 49.3508C72.761 49.3029 72.7252 49.2361 72.7213 49.165C72.7175 49.0939 72.7459 49.0244 72.8004 48.9717C72.8549 48.9191 72.931 48.8876 73.0119 48.8842C73.0929 48.8808 73.172 48.9058 73.232 48.9537L74.4896 49.9573C74.5459 50.0073 74.5774 50.0748 74.5774 50.145C74.5774 50.2153 74.5459 50.2828 74.4896 50.3328C74.4636 50.3584 74.432 50.3793 74.3968 50.3942C74.3615 50.4091 74.3232 50.4176 74.2841 50.4194Z" fill="white"/>
<path d="M73.98 57.9575C73.942 57.958 73.9043 57.9518 73.869 57.9394C73.8337 57.927 73.8016 57.9086 73.7745 57.8853C73.7183 57.8353 73.6867 57.7678 73.6867 57.6976C73.6867 57.6273 73.7183 57.5598 73.7745 57.5098L74.802 56.5062C74.8612 56.458 74.939 56.4312 75.0198 56.4312C75.1006 56.4312 75.1784 56.458 75.2376 56.5062C75.2944 56.5574 75.3261 56.6261 75.3261 56.6975C75.3261 56.769 75.2944 56.8377 75.2376 56.8889L74.2101 57.8925C74.1792 57.9169 74.1426 57.9354 74.103 57.9466C74.0633 57.9578 74.0214 57.9615 73.98 57.9575Z" fill="white"/>
<path d="M81.715 50.4195C81.6562 50.4211 81.5981 50.4072 81.5483 50.3797C81.4984 50.3521 81.4591 50.3121 81.4353 50.2649C81.4114 50.2176 81.4042 50.1651 81.4145 50.1142C81.4248 50.0633 81.4522 50.0162 81.4931 49.979L82.5206 48.9754C82.5775 48.926 82.6543 48.8983 82.7343 48.8983C82.8143 48.8983 82.8911 48.926 82.948 48.9754C83.0023 49.0263 83.0326 49.0934 83.0326 49.1631C83.0326 49.2329 83.0023 49.3 82.948 49.3508L81.9205 50.3545C81.8628 50.3966 81.7901 50.4196 81.715 50.4195Z" fill="white"/>
<path d="M107.304 106.651H75.4431C75.0192 106.642 74.6132 106.499 74.2993 106.248C73.9854 105.998 73.7845 105.656 73.7334 105.287L73.4128 102.478C73.3893 102.306 73.408 102.131 73.4679 101.966C73.5277 101.8 73.6272 101.648 73.7596 101.52C73.8921 101.391 74.0544 101.289 74.2356 101.22C74.4168 101.151 74.6128 101.117 74.8102 101.12H106.671C107.093 101.13 107.497 101.272 107.809 101.521C108.121 101.77 108.321 102.11 108.372 102.478L108.693 105.287C108.718 105.459 108.7 105.634 108.641 105.799C108.583 105.965 108.484 106.118 108.352 106.247C108.221 106.376 108.059 106.479 107.878 106.549C107.697 106.619 107.501 106.654 107.304 106.651Z" fill="white"/>
<path d="M162.148 107.886H127.18C126.715 107.877 126.269 107.72 125.925 107.446C125.581 107.171 125.361 106.797 125.306 106.391L124.952 103.308C124.925 103.119 124.945 102.927 125.009 102.745C125.074 102.563 125.183 102.396 125.328 102.254C125.473 102.112 125.651 102 125.85 101.924C126.049 101.848 126.264 101.81 126.481 101.814H161.457C161.922 101.823 162.368 101.979 162.712 102.254C163.056 102.528 163.276 102.903 163.331 103.308L163.685 106.391C163.711 106.581 163.69 106.773 163.624 106.955C163.558 107.137 163.449 107.304 163.303 107.446C163.158 107.587 162.979 107.7 162.78 107.776C162.581 107.852 162.365 107.889 162.148 107.886Z" fill="#407BFF"/>
<path d="M213.605 106.651H181.744C181.321 106.642 180.916 106.498 180.604 106.248C180.291 105.997 180.092 105.656 180.043 105.287L179.722 102.478C179.697 102.306 179.715 102.132 179.774 101.966C179.832 101.801 179.931 101.649 180.063 101.52C180.195 101.391 180.357 101.289 180.538 101.22C180.718 101.151 180.914 101.117 181.111 101.12H212.972C213.394 101.128 213.799 101.27 214.112 101.52C214.425 101.769 214.624 102.109 214.674 102.478L215.002 105.287C215.026 105.459 215.007 105.634 214.947 105.8C214.887 105.965 214.788 106.118 214.656 106.247C214.523 106.376 214.361 106.479 214.18 106.549C213.999 106.619 213.803 106.653 213.605 106.651Z" fill="white"/>
<path opacity="0.7" d="M266.755 106.651H234.895C234.472 106.642 234.067 106.498 233.754 106.248C233.442 105.997 233.242 105.656 233.193 105.287L232.873 102.478C232.848 102.306 232.865 102.132 232.924 101.966C232.983 101.801 233.082 101.649 233.214 101.52C233.345 101.391 233.507 101.289 233.688 101.22C233.869 101.151 234.065 101.117 234.262 101.12H266.122C266.545 101.128 266.95 101.27 267.262 101.52C267.575 101.769 267.775 102.109 267.824 102.478L268.153 105.287C268.176 105.459 268.157 105.634 268.098 105.8C268.038 105.965 267.939 106.118 267.806 106.247C267.674 106.376 267.512 106.479 267.331 106.549C267.149 106.619 266.953 106.653 266.755 106.651Z" fill="white"/>
<path opacity="0.4" d="M319.906 106.651H288.053C287.629 106.643 287.222 106.501 286.908 106.25C286.594 105.999 286.393 105.657 286.344 105.287L286.023 102.478C285.998 102.306 286.016 102.132 286.075 101.966C286.134 101.801 286.232 101.649 286.364 101.52C286.496 101.391 286.658 101.289 286.839 101.22C287.019 101.151 287.215 101.117 287.412 101.12H319.273C319.696 101.13 320.101 101.272 320.414 101.521C320.728 101.77 320.93 102.109 320.983 102.478L321.303 105.287C321.327 105.459 321.308 105.634 321.248 105.8C321.188 105.965 321.089 106.118 320.957 106.247C320.824 106.376 320.662 106.479 320.481 106.549C320.3 106.619 320.104 106.653 319.906 106.651Z" fill="white"/>
<path d="M302.496 81.3224C304.798 84.6799 306.877 88.0301 308.858 91.5031C310.865 95.0052 312.652 98.6015 314.209 102.276C314.407 102.745 314.596 103.222 314.768 103.72L315.04 104.442L315.179 104.803L315.278 105.092C315.278 105.214 315.352 105.337 315.385 105.46C315.73 107.017 315.57 108.628 314.925 110.11C314.014 112.204 312.723 114.154 311.102 115.886C308.263 118.986 305.009 121.773 301.411 124.189L298.312 121.373C300.87 118.511 303.225 115.514 305.365 112.399C305.848 111.671 306.287 110.922 306.68 110.153C307.034 109.496 307.309 108.809 307.502 108.103C307.658 107.51 307.584 107.041 307.502 107.142V107.092L307.354 106.788L307.075 106.175C306.885 105.77 306.688 105.359 306.474 104.947C304.83 101.662 302.891 98.3624 300.901 95.0916C298.912 91.8207 296.791 88.5283 294.769 85.3297L302.496 81.3224Z" fill="#FF8B7B"/>
<path d="M299.487 120.11L294.81 123.72L301.321 127.33C301.321 127.33 303.236 124.601 303.154 122.074L299.487 120.11Z" fill="#FF8B7B"/>
<path d="M293.101 129.121L298.082 131.937L301.321 127.352L294.81 123.742L293.101 129.121Z" fill="#FF8B7B"/>
<path d="M275.115 57.8275C275.025 58.239 274.696 58.5495 274.392 58.4845C274.088 58.4195 273.907 58.0513 273.997 57.6397C274.088 57.2282 274.416 56.9177 274.721 56.9827C275.025 57.0477 275.206 57.4159 275.115 57.8275Z" fill="#263238"/>
<path d="M274.745 58.5423C273.906 59.7104 272.885 60.77 271.712 61.6904C271.988 61.9487 272.326 62.1505 272.701 62.2815C273.076 62.4125 273.479 62.4696 273.882 62.4485L274.745 58.5423Z" fill="#FF5652"/>
<path d="M277.343 55.8274C277.413 55.8281 277.481 55.8048 277.532 55.7624C277.585 55.7152 277.614 55.6517 277.614 55.5856C277.614 55.5194 277.585 55.4559 277.532 55.4087C277.234 55.1146 276.859 54.8886 276.439 54.7502C276.02 54.6118 275.568 54.5652 275.123 54.6144C275.088 54.6196 275.053 54.6311 275.022 54.6482C274.992 54.6653 274.965 54.6876 274.944 54.7139C274.924 54.7402 274.909 54.7698 274.902 54.8011C274.895 54.8324 274.894 54.8647 274.901 54.896C274.914 54.9601 274.954 55.0174 275.014 55.0553C275.074 55.0932 275.149 55.1086 275.222 55.0982C275.575 55.0666 275.93 55.109 276.261 55.222C276.591 55.335 276.886 55.5153 277.121 55.748C277.15 55.7741 277.184 55.7947 277.222 55.8083C277.26 55.822 277.302 55.8285 277.343 55.8274Z" fill="#263238"/>
<path d="M286.385 62.8168C285.563 66.6363 284.683 73.6473 287.725 76.1816C287.725 76.1816 286.533 80.0517 278.461 80.0517C269.575 80.0517 274.556 76.7737 274.556 76.7737C278.321 73.8855 279.266 70.8963 278.428 67.936L286.385 62.8168Z" fill="#FF8B7B"/>
<path d="M288.719 77.3368C289.171 75.8928 289.665 74.261 288.234 73.8783C286.664 73.4595 278.313 73.5895 275.559 74.853C272.805 76.1166 273.915 78.8603 273.915 78.8603L288.719 77.3368Z" fill="#263238"/>
<path d="M317.555 253.209C317.316 253.285 317.061 253.318 316.807 253.305C316.553 253.293 316.304 253.236 316.075 253.137C315.989 253.064 315.929 252.97 315.906 252.866C315.882 252.763 315.896 252.656 315.944 252.559C315.97 252.479 316.016 252.406 316.079 252.343C316.141 252.281 316.219 252.231 316.306 252.198C317.128 251.859 318.952 252.523 319.026 252.552C319.051 252.562 319.072 252.578 319.086 252.597C319.101 252.617 319.109 252.64 319.109 252.664C319.109 252.688 319.101 252.711 319.086 252.731C319.072 252.751 319.051 252.766 319.026 252.776C318.555 252.966 318.062 253.111 317.555 253.209ZM316.585 252.372L316.421 252.422C316.37 252.442 316.325 252.47 316.288 252.507C316.251 252.543 316.223 252.585 316.207 252.632C316.133 252.855 316.207 252.928 316.256 252.949C316.577 253.188 317.769 252.949 318.599 252.675C317.963 252.441 317.274 252.337 316.585 252.372Z" fill="#407BFF"/>
<path d="M319.002 252.783H318.936C318.262 252.61 316.823 251.715 316.807 251.122C316.806 251.03 316.842 250.94 316.908 250.868C316.974 250.795 317.066 250.745 317.169 250.725C317.27 250.693 317.379 250.68 317.486 250.688C317.594 250.695 317.699 250.723 317.793 250.769C318.615 251.122 319.084 252.567 319.109 252.632C319.115 252.648 319.117 252.665 319.115 252.682C319.113 252.699 319.106 252.715 319.096 252.729C319.086 252.744 319.072 252.756 319.056 252.766C319.039 252.775 319.021 252.781 319.002 252.783ZM317.358 250.942H317.292C317.119 250.993 317.119 251.072 317.119 251.101C317.119 251.455 318.081 252.155 318.763 252.444C318.569 251.88 318.192 251.379 317.678 251C317.622 250.967 317.558 250.946 317.492 250.936C317.426 250.926 317.357 250.928 317.292 250.942H317.358Z" fill="#407BFF"/>
<path d="M273.726 255.765C272.962 255.765 272.23 255.671 271.983 255.368C271.919 255.29 271.885 255.197 271.885 255.101C271.885 255.005 271.919 254.911 271.983 254.834C272.03 254.761 272.094 254.698 272.171 254.648C272.247 254.598 272.334 254.563 272.427 254.545C273.422 254.307 275.493 255.346 275.584 255.39C275.608 255.403 275.627 255.423 275.639 255.446C275.65 255.469 275.654 255.495 275.649 255.52C275.645 255.544 275.633 255.567 275.614 255.585C275.595 255.603 275.57 255.615 275.543 255.621C274.943 255.714 274.335 255.763 273.726 255.765ZM272.781 254.754C272.691 254.743 272.599 254.743 272.509 254.754C272.452 254.763 272.398 254.784 272.351 254.814C272.304 254.844 272.266 254.883 272.238 254.928C272.14 255.079 272.172 255.152 272.238 255.195C272.518 255.534 274.022 255.541 275.123 255.404C274.405 255.059 273.618 254.839 272.805 254.754H272.781Z" fill="#407BFF"/>
<path d="M275.543 255.599H275.485C274.77 255.317 273.348 254.191 273.455 253.599C273.455 253.462 273.594 253.289 273.981 253.252C274.121 253.241 274.262 253.254 274.396 253.291C274.53 253.328 274.655 253.389 274.762 253.469C275.305 254.035 275.627 254.738 275.682 255.476C275.686 255.498 275.682 255.521 275.672 255.541C275.662 255.561 275.645 255.579 275.625 255.592C275.599 255.601 275.57 255.604 275.543 255.599ZM274.096 253.484H274.014C273.759 253.484 273.742 253.599 273.734 253.628C273.668 253.982 274.638 254.87 275.378 255.252C275.302 254.654 275.015 254.091 274.556 253.642C274.425 253.551 274.263 253.503 274.096 253.505V253.484Z" fill="#407BFF"/>
<path d="M282.078 255.498H276.134L275.543 243.411H281.486L282.078 255.498Z" fill="#FF8B7B"/>
<path d="M325.627 251.397L319.816 252.502L313.988 241.245L319.799 240.14L325.627 251.397Z" fill="#FF8B7B"/>
<path d="M319.265 251.989L325.783 250.754C325.899 250.731 326.02 250.744 326.126 250.79C326.232 250.836 326.317 250.913 326.367 251.007L328.627 255.339C328.682 255.444 328.709 255.559 328.706 255.675C328.703 255.79 328.67 255.904 328.61 256.006C328.55 256.109 328.464 256.199 328.359 256.268C328.254 256.338 328.132 256.385 328.003 256.408C325.718 256.805 324.583 256.899 321.714 257.44C319.947 257.78 315.96 258.632 313.494 259.094C311.028 259.556 310.206 257.498 311.168 257.123C315.426 255.411 317.21 253.902 318.361 252.502C318.579 252.238 318.901 252.055 319.265 251.989Z" fill="#263238"/>
<path d="M276.192 254.877H282.678C282.796 254.876 282.911 254.911 283.003 254.975C283.096 255.039 283.161 255.13 283.187 255.231L284.363 259.874C284.392 259.984 284.393 260.098 284.366 260.208C284.339 260.319 284.283 260.422 284.205 260.511C284.126 260.601 284.025 260.673 283.91 260.724C283.796 260.775 283.669 260.803 283.541 260.805C281.198 260.769 277.787 260.646 274.877 260.646C271.433 260.646 271.49 260.812 267.479 260.812C265.013 260.812 264.363 258.646 265.383 258.451C270.027 257.556 270.791 257.462 274.811 255.281C275.223 255.042 275.699 254.903 276.192 254.877Z" fill="#263238"/>
<path d="M270.076 87.1708C267.808 90.8604 265.424 94.3912 262.867 97.8858C260.302 101.441 257.511 104.867 254.508 108.146C254.13 108.565 253.686 108.976 253.291 109.388L252.675 110.016L251.943 110.673C251.458 111.106 251.014 111.453 250.537 111.835L249.156 112.89C247.315 114.254 245.457 115.525 243.583 116.774C239.827 119.265 235.988 121.605 232.018 123.821L229.215 120.767C232.453 117.879 235.791 114.991 239.079 112.153C240.723 110.709 242.367 109.323 243.912 107.915C244.677 107.193 245.449 106.471 246.09 105.843L246.534 105.373L247.019 104.817C247.34 104.435 247.669 104.095 247.981 103.676C250.537 100.543 252.913 97.1421 255.297 93.7197C257.681 90.2972 259.974 86.8026 262.218 83.3585L270.076 87.1708Z" fill="#FF8B7B"/>
<path d="M300.194 77.3657C305.784 78.4921 312.311 96.0302 312.311 96.0302L302.784 101.503C302.784 101.503 296.726 93.3298 293.577 87.503C290.273 81.4235 294.498 76.2249 300.194 77.3657Z" fill="#407BFF"/>
<g opacity="0.7">
<path opacity="0.7" d="M300.194 77.3657C305.784 78.4921 312.311 96.0302 312.311 96.0302L302.784 101.503C302.784 101.503 296.726 93.3298 293.577 87.503C290.273 81.4235 294.498 76.2249 300.194 77.3657Z" fill="white"/>
</g>
<path opacity="0.5" d="M297.03 86.3695C296.545 85.8135 295.221 87.0915 294.227 88.7017C295.608 91.0988 297.35 93.7559 298.896 96.023C299.857 91.6403 298.287 87.7774 297.03 86.3695Z" fill="#407BFF"/>
<path d="M266.903 77.6401C266.903 77.6401 260.582 83.9145 266.55 122.745H298.328C298.55 118.464 295.484 97.5609 300.194 77.3657C296.679 76.7711 293.123 76.378 289.55 76.1888C285.052 75.9576 280.542 75.9576 276.044 76.1888C272.959 76.4619 269.902 76.9472 266.903 77.6401Z" fill="#407BFF"/>
<path opacity="0.7" d="M266.903 77.6401C266.903 77.6401 260.582 83.9145 266.55 122.745H298.328C298.55 118.464 295.484 97.5609 300.194 77.3657C296.679 76.7711 293.123 76.378 289.55 76.1888C285.052 75.9576 280.542 75.9576 276.044 76.1888C272.959 76.4619 269.902 76.9472 266.903 77.6401Z" fill="white"/>
<path opacity="0.5" d="M264.215 88.3189C263.888 92.9595 263.888 97.6135 264.215 102.254C268.26 99.9725 271.975 93.9002 271.613 89.8857L264.215 88.3189Z" fill="#407BFF"/>
<path d="M146.3 78.4055L145.338 79.7773L137.759 75.1491L138.252 74.456L146.3 78.4055Z" fill="#407BFF"/>
<path d="M146.554 78.0517L145.083 80.1311L219.441 124.803L225.203 116.63L146.554 78.0517Z" fill="#263238"/>
<path opacity="0.2" d="M146.283 78.4415L145.362 79.7412L220.51 123.28L224.127 118.153L146.283 78.4415Z" fill="white"/>
<path d="M145.971 78.8748L145.667 79.308L221.718 121.568L222.918 119.857L145.971 78.8748Z" fill="#263238"/>
<path d="M226.338 132.283C225.528 132.284 224.734 132.086 224.044 131.713L224.579 130.991C224.995 131.212 225.46 131.353 225.944 131.404C226.427 131.455 226.917 131.415 227.382 131.287C228.398 131.005 229.266 130.414 229.829 129.619C230.393 128.825 230.615 127.88 230.456 126.955C230.379 126.533 230.201 126.131 229.933 125.775C229.665 125.419 229.314 125.117 228.902 124.89L222.055 121.157L222.589 120.399L229.437 124.132C229.97 124.424 230.425 124.813 230.774 125.273C231.123 125.732 231.356 126.251 231.459 126.796C231.658 127.933 231.388 129.096 230.698 130.074C230.007 131.052 228.942 131.782 227.694 132.132C227.253 132.241 226.796 132.292 226.338 132.283Z" fill="#263238"/>
<path d="M275.617 81.1058C278.74 87.7557 259.834 104.362 259.834 104.362L250.052 97.8641C250.052 97.8641 256.817 89.1565 259.604 83.178C263.04 75.8133 273.233 76.0444 275.617 81.1058Z" fill="#407BFF"/>
<path opacity="0.7" d="M275.617 81.1058C278.74 87.7557 259.834 104.362 259.834 104.362L250.052 97.8641C250.052 97.8641 256.817 89.1565 259.604 83.178C263.04 75.8133 273.233 76.0444 275.617 81.1058Z" fill="white"/>
<path d="M253.176 95.4525C255.239 97.2215 259.826 101.063 261.93 102.16C262.08 102.241 262.189 102.369 262.236 102.517C262.283 102.666 262.265 102.824 262.185 102.962C261.486 104.11 259.9 105.792 258.848 105.929C257.607 106.095 248.022 100.536 247.849 99.3948C247.743 98.6223 249.765 96.6511 251.072 95.4742C251.208 95.3505 251.37 95.2518 251.55 95.1837C251.73 95.1155 251.923 95.0795 252.119 95.0774C252.314 95.0754 252.509 95.1075 252.69 95.1719C252.872 95.2363 253.037 95.3317 253.176 95.4525Z" fill="#263238"/>
<path d="M300.926 97.9003C303.499 96.7667 309.146 94.2107 310.995 92.8461C311.132 92.748 311.305 92.6993 311.481 92.7101C311.657 92.7208 311.821 92.7901 311.941 92.9038C312.952 93.8569 314.242 95.7198 314.053 96.6367C313.823 97.727 304.707 103.857 303.433 103.64C302.562 103.482 301.107 101.157 300.26 99.6909C300.167 99.5355 300.111 99.3652 300.094 99.1902C300.077 99.0152 300.101 98.8391 300.163 98.6721C300.225 98.5052 300.324 98.3509 300.455 98.2183C300.586 98.0858 300.746 97.9776 300.926 97.9003Z" fill="#263238"/>
<path d="M231.155 119.561L225.17 121.207L227.883 126.392C227.883 126.392 233.086 125.785 234.114 122.059L231.155 119.561Z" fill="#FF8B7B"/>
<path d="M222.45 123.966L224.628 127.395L227.883 126.392L225.17 121.207L222.45 123.966Z" fill="#FF8B7B"/>
<path opacity="0.2" d="M275.543 243.411L275.847 249.642H281.798L281.494 243.411H275.543Z" fill="black"/>
<path opacity="0.2" d="M319.799 240.148L313.988 241.252L316.996 247.05L322.808 245.946L319.799 240.148Z" fill="black"/>
<path d="M290.988 59.6181C289.517 64.6723 288.941 67.6399 285.456 69.7265C280.195 72.8962 273.578 69.3583 273.315 64.0586C273.085 59.286 275.534 51.8851 281.634 50.831C282.98 50.5886 284.374 50.6536 285.684 51.02C286.993 51.3864 288.174 52.0417 289.112 52.9234C290.051 53.8051 290.716 54.8836 291.045 56.0558C291.373 57.2279 291.354 58.4545 290.988 59.6181Z" fill="#FF8B7B"/>
<path d="M277.622 60.8239C277.153 60.0087 276.995 59.0823 277.173 58.1821C277.351 57.282 277.854 56.4562 278.609 55.8275C276.784 54.9972 275.099 52.1451 276.858 50.4989C272.131 49.5386 274.745 45.2281 282.086 45.6468C289.426 46.0656 283.68 48.7877 283.68 48.7877C283.68 48.7877 299.479 49.8635 293.775 54.9177C296.282 56.239 296.512 60.694 292.953 62.824C287.199 66.2897 288.982 70.1598 284.601 69.4667C280.606 68.8313 277.154 64.9034 277.622 60.8239Z" fill="#263238"/>
<path d="M279.875 60.0731C279.764 60.6528 279.514 61.2052 279.142 61.6933C278.769 62.1814 278.282 62.594 277.713 62.9034C276.241 63.6255 275.37 63.0767 275.345 61.7338C275.345 60.528 275.962 58.5713 277.409 58.1236C278.855 57.6759 280.064 58.7301 279.875 60.0731Z" fill="#FF8B7B"/>
<path d="M277.836 122.745C277.836 122.745 284.576 162.63 288.275 177.569C292.336 193.93 314.012 246.386 314.012 246.386L324.641 244.364C324.641 244.364 308.414 195.266 306.105 179.057C303.589 161.468 298.337 122.738 298.337 122.738L277.836 122.745Z" fill="#263238"/>
<path d="M311.16 242.198C311.111 242.198 313.437 246.646 313.437 246.646L325.405 244.372L324.098 240.14L311.16 242.198Z" fill="#407BFF"/>
<path opacity="0.7" d="M311.16 242.198C311.111 242.198 313.437 246.646 313.437 246.646L325.405 244.372L324.098 240.14L311.16 242.198Z" fill="white"/>
<path opacity="0.3" d="M282.086 136.955C289.887 138.298 289.056 163.836 288.119 176.97C285.875 167.685 282.579 149.821 280.335 137.143C280.876 136.904 281.495 136.837 282.086 136.955Z" fill="black"/>
<path d="M266.55 122.745C266.55 122.745 265.728 161.735 266.386 177.677C267.051 194.234 273.636 248.437 273.636 248.437H283.705C283.705 248.437 284.075 195.201 284.527 178.941C285.012 161.222 287.453 122.745 287.453 122.745H266.55Z" fill="#263238"/>
<path d="M271.696 243.837L272.271 248.588H284.511L284.839 244.256L271.696 243.837Z" fill="#407BFF"/>
<path opacity="0.7" d="M271.696 243.837L272.271 248.588H284.511L284.839 244.256L271.696 243.837Z" fill="white"/>
</svg>
